<?xml version="1.0" encoding="UTF-8" standalone="no"?>
<!DOCTYPE svg PUBLIC "-//W3C//DTD SVG 1.1//EN"
 "http://www.w3.org/Graphics/SVG/1.1/DTD/svg11.dtd">
<!-- Generated by graphviz version 2.43.0 (0)
 -->
<!-- Title: snakemake_dag Pages: 1 -->
<svg width="774pt" height="287pt"
 viewBox="0.00 0.00 774.00 287.00" xmlns="http://www.w3.org/2000/svg" xmlns:xlink="http://www.w3.org/1999/xlink">
<g id="graph0" class="graph" transform="scale(1 1) rotate(0) translate(4 283)">
<title>snakemake_dag</title>
<polygon fill="white" stroke="transparent" points="-4,4 -4,-283 770,-283 770,4 -4,4"/>
<!-- 0 -->
<g id="node1" class="node">
<title>0</title>
<path fill="none" stroke="#97d856" stroke-width="2" d="M473,-36C473,-36 387,-36 387,-36 381,-36 375,-30 375,-24 375,-24 375,-12 375,-12 375,-6 381,0 387,0 387,0 473,0 473,0 479,0 485,-6 485,-12 485,-12 485,-24 485,-24 485,-30 479,-36 473,-36"/>
<text text-anchor="middle" x="430" y="-15.5" font-family="sans" font-size="10.00">build_PharmacoSet</text>
</g>
<!-- 1 -->
<g id="node2" class="node">
<title>1</title>
<path fill="none" stroke="#569ad8" stroke-width="2" stroke-dasharray="5,2" d="M330,-108C330,-108 204,-108 204,-108 198,-108 192,-102 192,-96 192,-96 192,-84 192,-84 192,-78 198,-72 204,-72 204,-72 330,-72 330,-72 336,-72 342,-78 342,-84 342,-84 342,-96 342,-96 342,-102 336,-108 330,-108"/>
<text text-anchor="middle" x="267" y="-87.5" font-family="sans" font-size="10.00">make_ExpressionGenes_SE</text>
</g>
<!-- 1&#45;&gt;0 -->
<g id="edge1" class="edge">
<title>1&#45;&gt;0</title>
<path fill="none" stroke="grey" stroke-width="2" d="M306.87,-71.88C329.16,-62.31 357.12,-50.3 380.76,-40.15"/>
<polygon fill="grey" stroke="grey" stroke-width="2" points="382.45,-43.23 390.26,-36.07 379.69,-36.8 382.45,-43.23"/>
</g>
<!-- 2 -->
<g id="node3" class="node">
<title>2</title>
<path fill="none" stroke="#d8b456" stroke-width="2" stroke-dasharray="5,2" d="M336,-180C336,-180 206,-180 206,-180 200,-180 194,-174 194,-168 194,-168 194,-156 194,-156 194,-150 200,-144 206,-144 206,-144 336,-144 336,-144 342,-144 348,-150 348,-156 348,-156 348,-168 348,-168 348,-174 342,-180 336,-180"/>
<text text-anchor="middle" x="271" y="-159.5" font-family="sans" font-size="10.00">preprocessExpressionGenes</text>
</g>
<!-- 2&#45;&gt;1 -->
<g id="edge6" class="edge">
<title>2&#45;&gt;1</title>
<path fill="none" stroke="grey" stroke-width="2" d="M270.01,-143.7C269.57,-135.98 269.04,-126.71 268.55,-118.11"/>
<polygon fill="grey" stroke="grey" stroke-width="2" points="272.04,-117.89 267.98,-108.1 265.05,-118.29 272.04,-117.89"/>
</g>
<!-- 3 -->
<g id="node4" class="node">
<title>3</title>
<path fill="none" stroke="#d6d856" stroke-width="2" stroke-dasharray="5,2" d="M154.5,-265.5C154.5,-265.5 61.5,-265.5 61.5,-265.5 55.5,-265.5 49.5,-259.5 49.5,-253.5 49.5,-253.5 49.5,-241.5 49.5,-241.5 49.5,-235.5 55.5,-229.5 61.5,-229.5 61.5,-229.5 154.5,-229.5 154.5,-229.5 160.5,-229.5 166.5,-235.5 166.5,-241.5 166.5,-241.5 166.5,-253.5 166.5,-253.5 166.5,-259.5 160.5,-265.5 154.5,-265.5"/>
<text text-anchor="middle" x="108" y="-245" font-family="sans" font-size="10.00">downloadExpression</text>
</g>
<!-- 3&#45;&gt;2 -->
<g id="edge7" class="edge">
<title>3&#45;&gt;2</title>
<path fill="none" stroke="grey" stroke-width="2" d="M141.38,-229.4C166.65,-216.46 201.54,-198.58 228.76,-184.64"/>
<polygon fill="grey" stroke="grey" stroke-width="2" points="230.36,-187.75 237.67,-180.08 227.17,-181.52 230.36,-187.75"/>
</g>
<!-- 6 -->
<g id="node7" class="node">
<title>6</title>
<path fill="none" stroke="#d85656" stroke-width="2" stroke-dasharray="5,2" d="M164,-180C164,-180 12,-180 12,-180 6,-180 0,-174 0,-168 0,-168 0,-156 0,-156 0,-150 6,-144 12,-144 12,-144 164,-144 164,-144 170,-144 176,-150 176,-156 176,-156 176,-168 176,-168 176,-174 170,-180 164,-180"/>
<text text-anchor="middle" x="88" y="-159.5" font-family="sans" font-size="10.00">preprocessExpressionTranscripts</text>
</g>
<!-- 3&#45;&gt;6 -->
<g id="edge10" class="edge">
<title>3&#45;&gt;6</title>
<path fill="none" stroke="grey" stroke-width="2" d="M103.86,-229.2C101.15,-217.89 97.55,-202.89 94.47,-190.03"/>
<polygon fill="grey" stroke="grey" stroke-width="2" points="97.87,-189.19 92.14,-180.28 91.06,-190.82 97.87,-189.19"/>
</g>
<!-- 4 -->
<g id="node5" class="node">
<title>4</title>
<path fill="none" stroke="#56d8d8" stroke-width="2" stroke-dasharray="5,2" d="M326,-279C326,-279 216,-279 216,-279 210,-279 204,-273 204,-267 204,-267 204,-228 204,-228 204,-222 210,-216 216,-216 216,-216 326,-216 326,-216 332,-216 338,-222 338,-228 338,-228 338,-267 338,-267 338,-273 332,-279 326,-279"/>
<text text-anchor="middle" x="271" y="-267" font-family="sans" font-size="10.00">getGENCODEannotation</text>
<text text-anchor="middle" x="271" y="-256" font-family="sans" font-size="10.00">gencode_release: 19</text>
<text text-anchor="middle" x="271" y="-245" font-family="sans" font-size="10.00">refDir: metadata</text>
<text text-anchor="middle" x="271" y="-234" font-family="sans" font-size="10.00">ref_build: GRCh37</text>
<text text-anchor="middle" x="271" y="-223" font-family="sans" font-size="10.00">species: human</text>
</g>
<!-- 4&#45;&gt;2 -->
<g id="edge8" class="edge">
<title>4&#45;&gt;2</title>
<path fill="none" stroke="grey" stroke-width="2" d="M271,-215.88C271,-207.47 271,-198.4 271,-190.19"/>
<polygon fill="grey" stroke="grey" stroke-width="2" points="274.5,-190.03 271,-180.03 267.5,-190.03 274.5,-190.03"/>
</g>
<!-- 4&#45;&gt;6 -->
<g id="edge11" class="edge">
<title>4&#45;&gt;6</title>
<path fill="none" stroke="grey" stroke-width="2" d="M203.9,-215.88C180.9,-205.39 155.68,-193.88 134.66,-184.29"/>
<polygon fill="grey" stroke="grey" stroke-width="2" points="135.87,-180.99 125.32,-180.03 132.96,-187.36 135.87,-180.99"/>
</g>
<!-- 8 -->
<g id="node9" class="node">
<title>8</title>
<path fill="none" stroke="#56d89a" stroke-width="2" d="M454.5,-180C454.5,-180 387.5,-180 387.5,-180 381.5,-180 375.5,-174 375.5,-168 375.5,-168 375.5,-156 375.5,-156 375.5,-150 381.5,-144 387.5,-144 387.5,-144 454.5,-144 454.5,-144 460.5,-144 466.5,-150 466.5,-156 466.5,-156 466.5,-168 466.5,-168 466.5,-174 460.5,-180 454.5,-180"/>
<text text-anchor="middle" x="421" y="-159.5" font-family="sans" font-size="10.00">preprocessCNV</text>
</g>
<!-- 4&#45;&gt;8 -->
<g id="edge13" class="edge">
<title>4&#45;&gt;8</title>
<path fill="none" stroke="grey" stroke-width="2" d="M326,-215.88C344.35,-205.67 364.41,-194.5 381.35,-185.07"/>
<polygon fill="grey" stroke="grey" stroke-width="2" points="383.38,-187.95 390.41,-180.03 379.97,-181.83 383.38,-187.95"/>
</g>
<!-- 5 -->
<g id="node6" class="node">
<title>5</title>
<path fill="none" stroke="#b6d856" stroke-width="2" stroke-dasharray="5,2" d="M162,-108C162,-108 14,-108 14,-108 8,-108 2,-102 2,-96 2,-96 2,-84 2,-84 2,-78 8,-72 14,-72 14,-72 162,-72 162,-72 168,-72 174,-78 174,-84 174,-84 174,-96 174,-96 174,-102 168,-108 162,-108"/>
<text text-anchor="middle" x="88" y="-87.5" font-family="sans" font-size="10.00">make_ExpressionTranscripts_SE</text>
</g>
<!-- 5&#45;&gt;0 -->
<g id="edge2" class="edge">
<title>5&#45;&gt;0</title>
<path fill="none" stroke="grey" stroke-width="2" d="M171.23,-71.97C230.79,-59.77 309.85,-43.59 364.84,-32.34"/>
<polygon fill="grey" stroke="grey" stroke-width="2" points="365.72,-35.73 374.81,-30.3 364.32,-28.87 365.72,-35.73"/>
</g>
<!-- 6&#45;&gt;5 -->
<g id="edge9" class="edge">
<title>6&#45;&gt;5</title>
<path fill="none" stroke="grey" stroke-width="2" d="M88,-143.7C88,-135.98 88,-126.71 88,-118.11"/>
<polygon fill="grey" stroke="grey" stroke-width="2" points="91.5,-118.1 88,-108.1 84.5,-118.1 91.5,-118.1"/>
</g>
<!-- 7 -->
<g id="node8" class="node">
<title>7</title>
<path fill="none" stroke="#78d856" stroke-width="2" d="M488,-108C488,-108 372,-108 372,-108 366,-108 360,-102 360,-96 360,-96 360,-84 360,-84 360,-78 366,-72 372,-72 372,-72 488,-72 488,-72 494,-72 500,-78 500,-84 500,-84 500,-96 500,-96 500,-102 494,-108 488,-108"/>
<text text-anchor="middle" x="430" y="-87.5" font-family="sans" font-size="10.00">make_ExpressionCNV_SE</text>
</g>
<!-- 7&#45;&gt;0 -->
<g id="edge3" class="edge">
<title>7&#45;&gt;0</title>
<path fill="none" stroke="grey" stroke-width="2" d="M430,-71.7C430,-63.98 430,-54.71 430,-46.11"/>
<polygon fill="grey" stroke="grey" stroke-width="2" points="433.5,-46.1 430,-36.1 426.5,-46.1 433.5,-46.1"/>
</g>
<!-- 8&#45;&gt;7 -->
<g id="edge12" class="edge">
<title>8&#45;&gt;7</title>
<path fill="none" stroke="grey" stroke-width="2" d="M423.22,-143.7C424.22,-135.98 425.41,-126.71 426.51,-118.11"/>
<polygon fill="grey" stroke="grey" stroke-width="2" points="430,-118.47 427.8,-108.1 423.05,-117.58 430,-118.47"/>
</g>
<!-- 9 -->
<g id="node10" class="node">
<title>9</title>
<path fill="none" stroke="#d87556" stroke-width="2" stroke-dasharray="5,2" d="M613.5,-108C613.5,-108 530.5,-108 530.5,-108 524.5,-108 518.5,-102 518.5,-96 518.5,-96 518.5,-84 518.5,-84 518.5,-78 524.5,-72 530.5,-72 530.5,-72 613.5,-72 613.5,-72 619.5,-72 625.5,-78 625.5,-84 625.5,-84 625.5,-96 625.5,-96 625.5,-102 619.5,-108 613.5,-108"/>
<text text-anchor="middle" x="572" y="-87.5" font-family="sans" font-size="10.00">downloadMutation</text>
</g>
<!-- 9&#45;&gt;0 -->
<g id="edge4" class="edge">
<title>9&#45;&gt;0</title>
<path fill="none" stroke="grey" stroke-width="2" d="M537.26,-71.88C518.18,-62.47 494.32,-50.71 473.95,-40.67"/>
<polygon fill="grey" stroke="grey" stroke-width="2" points="475.39,-37.47 464.87,-36.19 472.29,-43.75 475.39,-37.47"/>
</g>
<!-- 10 -->
<g id="node11" class="node">
<title>10</title>
<path fill="none" stroke="#d89556" stroke-width="2" stroke-dasharray="5,2" d="M754,-108C754,-108 656,-108 656,-108 650,-108 644,-102 644,-96 644,-96 644,-84 644,-84 644,-78 650,-72 656,-72 656,-72 754,-72 754,-72 760,-72 766,-78 766,-84 766,-84 766,-96 766,-96 766,-102 760,-108 754,-108"/>
<text text-anchor="middle" x="705" y="-87.5" font-family="sans" font-size="10.00">downloadMethylation</text>
</g>
<!-- 10&#45;&gt;0 -->
<g id="edge5" class="edge">
<title>10&#45;&gt;0</title>
<path fill="none" stroke="grey" stroke-width="2" d="M643.97,-73.46C599.84,-62.23 540.29,-47.07 495.22,-35.6"/>
<polygon fill="grey" stroke="grey" stroke-width="2" points="495.81,-32.14 485.26,-33.07 494.09,-38.92 495.81,-32.14"/>
</g>
</g>
</svg>
