<?xml version="1.0" encoding="UTF-8" standalone="no"?>
<!DOCTYPE svg PUBLIC "-//W3C//DTD SVG 1.1//EN"
 "http://www.w3.org/Graphics/SVG/1.1/DTD/svg11.dtd">
<!-- Generated by graphviz version 2.43.0 (0)
 -->
<!-- Title: snakemake_dag Pages: 1 -->
<svg width="1015pt" height="287pt"
 viewBox="0.00 0.00 1015.00 287.00" xmlns="http://www.w3.org/2000/svg" xmlns:xlink="http://www.w3.org/1999/xlink">
<g id="graph0" class="graph" transform="scale(1 1) rotate(0) translate(4 283)">
<title>snakemake_dag</title>
<polygon fill="white" stroke="transparent" points="-4,4 -4,-283 1011,-283 1011,4 -4,4"/>
<!-- 0 -->
<g id="node1" class="node">
<title>0</title>
<path fill="none" stroke="#56b1d8" stroke-width="2" d="M579,-36C579,-36 493,-36 493,-36 487,-36 481,-30 481,-24 481,-24 481,-12 481,-12 481,-6 487,0 493,0 493,0 579,0 579,0 585,0 591,-6 591,-12 591,-12 591,-24 591,-24 591,-30 585,-36 579,-36"/>
<text text-anchor="middle" x="536" y="-15.5" font-family="sans" font-size="10.00">build_PharmacoSet</text>
</g>
<!-- 1 -->
<g id="node2" class="node">
<title>1</title>
<path fill="none" stroke="#569ad8" stroke-width="2" d="M142,-108C142,-108 16,-108 16,-108 10,-108 4,-102 4,-96 4,-96 4,-84 4,-84 4,-78 10,-72 16,-72 16,-72 142,-72 142,-72 148,-72 154,-78 154,-84 154,-84 154,-96 154,-96 154,-102 148,-108 142,-108"/>
<text text-anchor="middle" x="79" y="-87.5" font-family="sans" font-size="10.00">make_ExpressionGenes_SE</text>
</g>
<!-- 1&#45;&gt;0 -->
<g id="edge1" class="edge">
<title>1&#45;&gt;0</title>
<path fill="none" stroke="grey" stroke-width="2" d="M154,-73.93C157.72,-73.26 161.4,-72.61 165,-72 271.75,-53.84 396.49,-36.89 470.72,-27.26"/>
<polygon fill="grey" stroke="grey" stroke-width="2" points="471.39,-30.7 480.86,-25.94 470.49,-23.76 471.39,-30.7"/>
</g>
<!-- 2 -->
<g id="node3" class="node">
<title>2</title>
<path fill="none" stroke="#78d856" stroke-width="2" d="M142,-180C142,-180 12,-180 12,-180 6,-180 0,-174 0,-168 0,-168 0,-156 0,-156 0,-150 6,-144 12,-144 12,-144 142,-144 142,-144 148,-144 154,-150 154,-156 154,-156 154,-168 154,-168 154,-174 148,-180 142,-180"/>
<text text-anchor="middle" x="77" y="-159.5" font-family="sans" font-size="10.00">preprocessExpressionGenes</text>
</g>
<!-- 2&#45;&gt;1 -->
<g id="edge8" class="edge">
<title>2&#45;&gt;1</title>
<path fill="none" stroke="grey" stroke-width="2" d="M77.49,-143.7C77.71,-135.98 77.98,-126.71 78.23,-118.11"/>
<polygon fill="grey" stroke="grey" stroke-width="2" points="81.72,-118.2 78.51,-108.1 74.73,-118 81.72,-118.2"/>
</g>
<!-- 3 -->
<g id="node4" class="node">
<title>3</title>
<path fill="none" stroke="#d89c56" stroke-width="2" d="M143.5,-265.5C143.5,-265.5 50.5,-265.5 50.5,-265.5 44.5,-265.5 38.5,-259.5 38.5,-253.5 38.5,-253.5 38.5,-241.5 38.5,-241.5 38.5,-235.5 44.5,-229.5 50.5,-229.5 50.5,-229.5 143.5,-229.5 143.5,-229.5 149.5,-229.5 155.5,-235.5 155.5,-241.5 155.5,-241.5 155.5,-253.5 155.5,-253.5 155.5,-259.5 149.5,-265.5 143.5,-265.5"/>
<text text-anchor="middle" x="97" y="-245" font-family="sans" font-size="10.00">downloadExpression</text>
</g>
<!-- 3&#45;&gt;2 -->
<g id="edge9" class="edge">
<title>3&#45;&gt;2</title>
<path fill="none" stroke="grey" stroke-width="2" d="M92.86,-229.2C90.15,-217.89 86.55,-202.89 83.47,-190.03"/>
<polygon fill="grey" stroke="grey" stroke-width="2" points="86.87,-189.19 81.14,-180.28 80.06,-190.82 86.87,-189.19"/>
</g>
<!-- 6 -->
<g id="node7" class="node">
<title>6</title>
<path fill="none" stroke="#5682d8" stroke-width="2" d="M336,-180C336,-180 184,-180 184,-180 178,-180 172,-174 172,-168 172,-168 172,-156 172,-156 172,-150 178,-144 184,-144 184,-144 336,-144 336,-144 342,-144 348,-150 348,-156 348,-156 348,-168 348,-168 348,-174 342,-180 336,-180"/>
<text text-anchor="middle" x="260" y="-159.5" font-family="sans" font-size="10.00">preprocessExpressionTranscripts</text>
</g>
<!-- 3&#45;&gt;6 -->
<g id="edge12" class="edge">
<title>3&#45;&gt;6</title>
<path fill="none" stroke="grey" stroke-width="2" d="M130.38,-229.4C155.65,-216.46 190.54,-198.58 217.76,-184.64"/>
<polygon fill="grey" stroke="grey" stroke-width="2" points="219.36,-187.75 226.67,-180.08 216.17,-181.52 219.36,-187.75"/>
</g>
<!-- 4 -->
<g id="node5" class="node">
<title>4</title>
<path fill="none" stroke="#d8b456" stroke-width="2" d="M315,-279C315,-279 205,-279 205,-279 199,-279 193,-273 193,-267 193,-267 193,-228 193,-228 193,-222 199,-216 205,-216 205,-216 315,-216 315,-216 321,-216 327,-222 327,-228 327,-228 327,-267 327,-267 327,-273 321,-279 315,-279"/>
<text text-anchor="middle" x="260" y="-267" font-family="sans" font-size="10.00">getGENCODEannotation</text>
<text text-anchor="middle" x="260" y="-256" font-family="sans" font-size="10.00">gencode_release: 19</text>
<text text-anchor="middle" x="260" y="-245" font-family="sans" font-size="10.00">refDir: metadata</text>
<text text-anchor="middle" x="260" y="-234" font-family="sans" font-size="10.00">ref_build: GRCh37</text>
<text text-anchor="middle" x="260" y="-223" font-family="sans" font-size="10.00">species: human</text>
</g>
<!-- 4&#45;&gt;2 -->
<g id="edge10" class="edge">
<title>4&#45;&gt;2</title>
<path fill="none" stroke="grey" stroke-width="2" d="M192.9,-215.88C169.9,-205.39 144.68,-193.88 123.66,-184.29"/>
<polygon fill="grey" stroke="grey" stroke-width="2" points="124.87,-180.99 114.32,-180.03 121.96,-187.36 124.87,-180.99"/>
</g>
<!-- 4&#45;&gt;6 -->
<g id="edge13" class="edge">
<title>4&#45;&gt;6</title>
<path fill="none" stroke="grey" stroke-width="2" d="M260,-215.88C260,-207.47 260,-198.4 260,-190.19"/>
<polygon fill="grey" stroke="grey" stroke-width="2" points="263.5,-190.03 260,-180.03 256.5,-190.03 263.5,-190.03"/>
</g>
<!-- 8 -->
<g id="node9" class="node">
<title>8</title>
<path fill="none" stroke="#bed856" stroke-width="2" d="M445.5,-180C445.5,-180 378.5,-180 378.5,-180 372.5,-180 366.5,-174 366.5,-168 366.5,-168 366.5,-156 366.5,-156 366.5,-150 372.5,-144 378.5,-144 378.5,-144 445.5,-144 445.5,-144 451.5,-144 457.5,-150 457.5,-156 457.5,-156 457.5,-168 457.5,-168 457.5,-174 451.5,-180 445.5,-180"/>
<text text-anchor="middle" x="412" y="-159.5" font-family="sans" font-size="10.00">preprocessCNV</text>
</g>
<!-- 4&#45;&gt;8 -->
<g id="edge16" class="edge">
<title>4&#45;&gt;8</title>
<path fill="none" stroke="grey" stroke-width="2" d="M315.74,-215.88C334.32,-205.67 354.65,-194.5 371.82,-185.07"/>
<polygon fill="grey" stroke="grey" stroke-width="2" points="373.93,-187.91 381.01,-180.03 370.56,-181.77 373.93,-187.91"/>
</g>
<!-- 5 -->
<g id="node6" class="node">
<title>5</title>
<path fill="none" stroke="#d85656" stroke-width="2" d="M334,-108C334,-108 186,-108 186,-108 180,-108 174,-102 174,-96 174,-96 174,-84 174,-84 174,-78 180,-72 186,-72 186,-72 334,-72 334,-72 340,-72 346,-78 346,-84 346,-84 346,-96 346,-96 346,-102 340,-108 334,-108"/>
<text text-anchor="middle" x="260" y="-87.5" font-family="sans" font-size="10.00">make_ExpressionTranscripts_SE</text>
</g>
<!-- 5&#45;&gt;0 -->
<g id="edge2" class="edge">
<title>5&#45;&gt;0</title>
<path fill="none" stroke="grey" stroke-width="2" d="M327.16,-71.97C370.83,-60.89 427.49,-46.52 470.77,-35.54"/>
<polygon fill="grey" stroke="grey" stroke-width="2" points="471.79,-38.9 480.62,-33.04 470.07,-32.11 471.79,-38.9"/>
</g>
<!-- 6&#45;&gt;5 -->
<g id="edge11" class="edge">
<title>6&#45;&gt;5</title>
<path fill="none" stroke="grey" stroke-width="2" d="M260,-143.7C260,-135.98 260,-126.71 260,-118.11"/>
<polygon fill="grey" stroke="grey" stroke-width="2" points="263.5,-118.1 260,-108.1 256.5,-118.1 263.5,-118.1"/>
</g>
<!-- 7 -->
<g id="node8" class="node">
<title>7</title>
<path fill="none" stroke="#d88556" stroke-width="2" d="M439.5,-108C439.5,-108 376.5,-108 376.5,-108 370.5,-108 364.5,-102 364.5,-96 364.5,-96 364.5,-84 364.5,-84 364.5,-78 370.5,-72 376.5,-72 376.5,-72 439.5,-72 439.5,-72 445.5,-72 451.5,-78 451.5,-84 451.5,-84 451.5,-96 451.5,-96 451.5,-102 445.5,-108 439.5,-108"/>
<text text-anchor="middle" x="408" y="-87.5" font-family="sans" font-size="10.00">make_CNV_SE</text>
</g>
<!-- 7&#45;&gt;0 -->
<g id="edge3" class="edge">
<title>7&#45;&gt;0</title>
<path fill="none" stroke="grey" stroke-width="2" d="M439.31,-71.88C456.2,-62.64 477.25,-51.13 495.38,-41.21"/>
<polygon fill="grey" stroke="grey" stroke-width="2" points="497.47,-44.06 504.57,-36.19 494.11,-37.92 497.47,-44.06"/>
</g>
<!-- 8&#45;&gt;7 -->
<g id="edge14" class="edge">
<title>8&#45;&gt;7</title>
<path fill="none" stroke="grey" stroke-width="2" d="M411.01,-143.7C410.57,-135.98 410.04,-126.71 409.55,-118.11"/>
<polygon fill="grey" stroke="grey" stroke-width="2" points="413.04,-117.89 408.98,-108.1 406.05,-118.29 413.04,-117.89"/>
</g>
<!-- 9 -->
<g id="node10" class="node">
<title>9</title>
<path fill="none" stroke="#566bd8" stroke-width="2" d="M442.5,-265.5C442.5,-265.5 381.5,-265.5 381.5,-265.5 375.5,-265.5 369.5,-259.5 369.5,-253.5 369.5,-253.5 369.5,-241.5 369.5,-241.5 369.5,-235.5 375.5,-229.5 381.5,-229.5 381.5,-229.5 442.5,-229.5 442.5,-229.5 448.5,-229.5 454.5,-235.5 454.5,-241.5 454.5,-241.5 454.5,-253.5 454.5,-253.5 454.5,-259.5 448.5,-265.5 442.5,-265.5"/>
<text text-anchor="middle" x="412" y="-245" font-family="sans" font-size="10.00">downloadCNV</text>
</g>
<!-- 9&#45;&gt;8 -->
<g id="edge15" class="edge">
<title>9&#45;&gt;8</title>
<path fill="none" stroke="grey" stroke-width="2" d="M412,-229.2C412,-218 412,-203.19 412,-190.41"/>
<polygon fill="grey" stroke="grey" stroke-width="2" points="415.5,-190.28 412,-180.28 408.5,-190.28 415.5,-190.28"/>
</g>
<!-- 10 -->
<g id="node11" class="node">
<title>10</title>
<path fill="none" stroke="#d86e56" stroke-width="2" d="M729,-108C729,-108 633,-108 633,-108 627,-108 621,-102 621,-96 621,-96 621,-84 621,-84 621,-78 627,-72 633,-72 633,-72 729,-72 729,-72 735,-72 741,-78 741,-84 741,-84 741,-96 741,-96 741,-102 735,-108 729,-108"/>
<text text-anchor="middle" x="681" y="-87.5" font-family="sans" font-size="10.00">annotateSampleData</text>
</g>
<!-- 10&#45;&gt;0 -->
<g id="edge4" class="edge">
<title>10&#45;&gt;0</title>
<path fill="none" stroke="grey" stroke-width="2" d="M645.53,-71.88C625.88,-62.39 601.28,-50.51 580.37,-40.42"/>
<polygon fill="grey" stroke="grey" stroke-width="2" points="581.88,-37.26 571.36,-36.07 578.84,-43.57 581.88,-37.26"/>
</g>
<!-- 11 -->
<g id="node12" class="node">
<title>11</title>
<path fill="none" stroke="#d6d856" stroke-width="2" d="M695,-180C695,-180 603,-180 603,-180 597,-180 591,-174 591,-168 591,-168 591,-156 591,-156 591,-150 597,-144 603,-144 603,-144 695,-144 695,-144 701,-144 707,-150 707,-156 707,-156 707,-168 707,-168 707,-174 701,-180 695,-180"/>
<text text-anchor="middle" x="649" y="-159.5" font-family="sans" font-size="10.00">preprocessMetadata</text>
</g>
<!-- 11&#45;&gt;10 -->
<g id="edge17" class="edge">
<title>11&#45;&gt;10</title>
<path fill="none" stroke="grey" stroke-width="2" d="M656.91,-143.7C660.55,-135.73 664.95,-126.1 668.99,-117.26"/>
<polygon fill="grey" stroke="grey" stroke-width="2" points="672.21,-118.65 673.18,-108.1 665.84,-115.74 672.21,-118.65"/>
</g>
<!-- 14 -->
<g id="node15" class="node">
<title>14</title>
<path fill="none" stroke="#56d863" stroke-width="2" d="M590.5,-108C590.5,-108 481.5,-108 481.5,-108 475.5,-108 469.5,-102 469.5,-96 469.5,-96 469.5,-84 469.5,-84 469.5,-78 475.5,-72 481.5,-72 481.5,-72 590.5,-72 590.5,-72 596.5,-72 602.5,-78 602.5,-84 602.5,-84 602.5,-96 602.5,-96 602.5,-102 596.5,-108 590.5,-108"/>
<text text-anchor="middle" x="536" y="-87.5" font-family="sans" font-size="10.00">annotateTreatmentData</text>
</g>
<!-- 11&#45;&gt;14 -->
<g id="edge20" class="edge">
<title>11&#45;&gt;14</title>
<path fill="none" stroke="grey" stroke-width="2" d="M621.36,-143.88C606.58,-134.72 588.21,-123.34 572.3,-113.48"/>
<polygon fill="grey" stroke="grey" stroke-width="2" points="574.09,-110.48 563.75,-108.19 570.41,-116.43 574.09,-110.48"/>
</g>
<!-- 12 -->
<g id="node13" class="node">
<title>12</title>
<path fill="none" stroke="#56d8a2" stroke-width="2" d="M831,-265.5C831,-265.5 701,-265.5 701,-265.5 695,-265.5 689,-259.5 689,-253.5 689,-253.5 689,-241.5 689,-241.5 689,-235.5 695,-229.5 701,-229.5 701,-229.5 831,-229.5 831,-229.5 837,-229.5 843,-235.5 843,-241.5 843,-241.5 843,-253.5 843,-253.5 843,-259.5 837,-265.5 831,-265.5"/>
<text text-anchor="middle" x="766" y="-245" font-family="sans" font-size="10.00">downloadSampleAnnotation</text>
</g>
<!-- 12&#45;&gt;11 -->
<g id="edge18" class="edge">
<title>12&#45;&gt;11</title>
<path fill="none" stroke="grey" stroke-width="2" d="M742.04,-229.4C724.45,-216.85 700.38,-199.67 681.12,-185.92"/>
<polygon fill="grey" stroke="grey" stroke-width="2" points="683.1,-183.04 672.93,-180.08 679.03,-188.73 683.1,-183.04"/>
</g>
<!-- 13 -->
<g id="node14" class="node">
<title>13</title>
<path fill="none" stroke="#56d8b9" stroke-width="2" d="M658.5,-265.5C658.5,-265.5 515.5,-265.5 515.5,-265.5 509.5,-265.5 503.5,-259.5 503.5,-253.5 503.5,-253.5 503.5,-241.5 503.5,-241.5 503.5,-235.5 509.5,-229.5 515.5,-229.5 515.5,-229.5 658.5,-229.5 658.5,-229.5 664.5,-229.5 670.5,-235.5 670.5,-241.5 670.5,-241.5 670.5,-253.5 670.5,-253.5 670.5,-259.5 664.5,-265.5 658.5,-265.5"/>
<text text-anchor="middle" x="587" y="-245" font-family="sans" font-size="10.00">downloadTreatmentAnnotation</text>
</g>
<!-- 13&#45;&gt;11 -->
<g id="edge19" class="edge">
<title>13&#45;&gt;11</title>
<path fill="none" stroke="grey" stroke-width="2" d="M599.85,-229.2C608.58,-217.44 620.27,-201.69 630.06,-188.51"/>
<polygon fill="grey" stroke="grey" stroke-width="2" points="633.02,-190.39 636.17,-180.28 627.4,-186.22 633.02,-190.39"/>
</g>
<!-- 14&#45;&gt;0 -->
<g id="edge5" class="edge">
<title>14&#45;&gt;0</title>
<path fill="none" stroke="grey" stroke-width="2" d="M536,-71.7C536,-63.98 536,-54.71 536,-46.11"/>
<polygon fill="grey" stroke="grey" stroke-width="2" points="539.5,-46.1 536,-36.1 532.5,-46.1 539.5,-46.1"/>
</g>
<!-- 15 -->
<g id="node16" class="node">
<title>15</title>
<path fill="none" stroke="#56d892" stroke-width="2" d="M854.5,-108C854.5,-108 771.5,-108 771.5,-108 765.5,-108 759.5,-102 759.5,-96 759.5,-96 759.5,-84 759.5,-84 759.5,-78 765.5,-72 771.5,-72 771.5,-72 854.5,-72 854.5,-72 860.5,-72 866.5,-78 866.5,-84 866.5,-84 866.5,-96 866.5,-96 866.5,-102 860.5,-108 854.5,-108"/>
<text text-anchor="middle" x="813" y="-87.5" font-family="sans" font-size="10.00">downloadMutation</text>
</g>
<!-- 15&#45;&gt;0 -->
<g id="edge6" class="edge">
<title>15&#45;&gt;0</title>
<path fill="none" stroke="grey" stroke-width="2" d="M759.4,-74.46C756.22,-73.62 753.07,-72.79 750,-72 700.09,-59.09 643.45,-45.09 600.99,-34.72"/>
<polygon fill="grey" stroke="grey" stroke-width="2" points="601.6,-31.27 591.06,-32.3 599.94,-38.07 601.6,-31.27"/>
</g>
<!-- 16 -->
<g id="node17" class="node">
<title>16</title>
<path fill="none" stroke="#56d87b" stroke-width="2" d="M995,-108C995,-108 897,-108 897,-108 891,-108 885,-102 885,-96 885,-96 885,-84 885,-84 885,-78 891,-72 897,-72 897,-72 995,-72 995,-72 1001,-72 1007,-78 1007,-84 1007,-84 1007,-96 1007,-96 1007,-102 1001,-108 995,-108"/>
<text text-anchor="middle" x="946" y="-87.5" font-family="sans" font-size="10.00">downloadMethylation</text>
</g>
<!-- 16&#45;&gt;0 -->
<g id="edge7" class="edge">
<title>16&#45;&gt;0</title>
<path fill="none" stroke="grey" stroke-width="2" d="M884.88,-74.04C881.54,-73.32 878.23,-72.64 875,-72 780.36,-53.3 669.81,-37.05 601.34,-27.64"/>
<polygon fill="grey" stroke="grey" stroke-width="2" points="601.52,-24.13 591.14,-26.24 600.57,-31.06 601.52,-24.13"/>
</g>
</g>
</svg>
