<?xml version="1.0" encoding="UTF-8" standalone="no"?>
<!DOCTYPE svg PUBLIC "-//W3C//DTD SVG 1.1//EN"
 "http://www.w3.org/Graphics/SVG/1.1/DTD/svg11.dtd">
<!-- Generated by graphviz version 2.43.0 (0)
 -->
<!-- Title: snakemake_dag Pages: 1 -->
<svg width="1040pt" height="359pt"
 viewBox="0.00 0.00 1039.50 359.00" xmlns="http://www.w3.org/2000/svg" xmlns:xlink="http://www.w3.org/1999/xlink">
<g id="graph0" class="graph" transform="scale(1 1) rotate(0) translate(4 355)">
<title>snakemake_dag</title>
<polygon fill="white" stroke="transparent" points="-4,4 -4,-355 1035.5,-355 1035.5,4 -4,4"/>
<!-- 0 -->
<g id="node1" class="node">
<title>0</title>
<path fill="none" stroke="#88d856" stroke-width="2" d="M622,-36C622,-36 536,-36 536,-36 530,-36 524,-30 524,-24 524,-24 524,-12 524,-12 524,-6 530,0 536,0 536,0 622,0 622,0 628,0 634,-6 634,-12 634,-12 634,-24 634,-24 634,-30 628,-36 622,-36"/>
<text text-anchor="middle" x="579" y="-15.5" font-family="sans" font-size="10.00">build_PharmacoSet</text>
</g>
<!-- 1 -->
<g id="node2" class="node">
<title>1</title>
<path fill="none" stroke="#56d0d8" stroke-width="2" d="M144,-108C144,-108 18,-108 18,-108 12,-108 6,-102 6,-96 6,-96 6,-84 6,-84 6,-78 12,-72 18,-72 18,-72 144,-72 144,-72 150,-72 156,-78 156,-84 156,-84 156,-96 156,-96 156,-102 150,-108 144,-108"/>
<text text-anchor="middle" x="81" y="-87.5" font-family="sans" font-size="10.00">make_ExpressionGenes_SE</text>
</g>
<!-- 1&#45;&gt;0 -->
<g id="edge1" class="edge">
<title>1&#45;&gt;0</title>
<path fill="none" stroke="grey" stroke-width="2" d="M156.46,-73.79C160.02,-73.16 163.55,-72.56 167,-72 289.01,-52.12 432.35,-35.1 513.75,-26.02"/>
<polygon fill="grey" stroke="grey" stroke-width="2" points="514.3,-29.48 523.85,-24.9 513.53,-22.53 514.3,-29.48"/>
</g>
<!-- 2 -->
<g id="node3" class="node">
<title>2</title>
<path fill="none" stroke="#78d856" stroke-width="2" d="M142,-180C142,-180 12,-180 12,-180 6,-180 0,-174 0,-168 0,-168 0,-156 0,-156 0,-150 6,-144 12,-144 12,-144 142,-144 142,-144 148,-144 154,-150 154,-156 154,-156 154,-168 154,-168 154,-174 148,-180 142,-180"/>
<text text-anchor="middle" x="77" y="-159.5" font-family="sans" font-size="10.00">preprocessExpressionGenes</text>
</g>
<!-- 2&#45;&gt;1 -->
<g id="edge8" class="edge">
<title>2&#45;&gt;1</title>
<path fill="none" stroke="grey" stroke-width="2" d="M77.99,-143.7C78.43,-135.98 78.96,-126.71 79.45,-118.11"/>
<polygon fill="grey" stroke="grey" stroke-width="2" points="82.95,-118.29 80.02,-108.1 75.96,-117.89 82.95,-118.29"/>
</g>
<!-- 3 -->
<g id="node4" class="node">
<title>3</title>
<path fill="none" stroke="#c6d856" stroke-width="2" d="M143.5,-265.5C143.5,-265.5 50.5,-265.5 50.5,-265.5 44.5,-265.5 38.5,-259.5 38.5,-253.5 38.5,-253.5 38.5,-241.5 38.5,-241.5 38.5,-235.5 44.5,-229.5 50.5,-229.5 50.5,-229.5 143.5,-229.5 143.5,-229.5 149.5,-229.5 155.5,-235.5 155.5,-241.5 155.5,-241.5 155.5,-253.5 155.5,-253.5 155.5,-259.5 149.5,-265.5 143.5,-265.5"/>
<text text-anchor="middle" x="97" y="-245" font-family="sans" font-size="10.00">downloadExpression</text>
</g>
<!-- 3&#45;&gt;2 -->
<g id="edge9" class="edge">
<title>3&#45;&gt;2</title>
<path fill="none" stroke="grey" stroke-width="2" d="M92.86,-229.2C90.15,-217.89 86.55,-202.89 83.47,-190.03"/>
<polygon fill="grey" stroke="grey" stroke-width="2" points="86.87,-189.19 81.14,-180.28 80.06,-190.82 86.87,-189.19"/>
</g>
<!-- 6 -->
<g id="node7" class="node">
<title>6</title>
<path fill="none" stroke="#d86e56" stroke-width="2" d="M336,-180C336,-180 184,-180 184,-180 178,-180 172,-174 172,-168 172,-168 172,-156 172,-156 172,-150 178,-144 184,-144 184,-144 336,-144 336,-144 342,-144 348,-150 348,-156 348,-156 348,-168 348,-168 348,-174 342,-180 336,-180"/>
<text text-anchor="middle" x="260" y="-159.5" font-family="sans" font-size="10.00">preprocessExpressionTranscripts</text>
</g>
<!-- 3&#45;&gt;6 -->
<g id="edge12" class="edge">
<title>3&#45;&gt;6</title>
<path fill="none" stroke="grey" stroke-width="2" d="M130.38,-229.4C155.65,-216.46 190.54,-198.58 217.76,-184.64"/>
<polygon fill="grey" stroke="grey" stroke-width="2" points="219.36,-187.75 226.67,-180.08 216.17,-181.52 219.36,-187.75"/>
</g>
<!-- 4 -->
<g id="node5" class="node">
<title>4</title>
<path fill="none" stroke="#61d856" stroke-width="2" d="M315,-279C315,-279 205,-279 205,-279 199,-279 193,-273 193,-267 193,-267 193,-228 193,-228 193,-222 199,-216 205,-216 205,-216 315,-216 315,-216 321,-216 327,-222 327,-228 327,-228 327,-267 327,-267 327,-273 321,-279 315,-279"/>
<text text-anchor="middle" x="260" y="-267" font-family="sans" font-size="10.00">getGENCODEannotation</text>
<text text-anchor="middle" x="260" y="-256" font-family="sans" font-size="10.00">gencode_release: 19</text>
<text text-anchor="middle" x="260" y="-245" font-family="sans" font-size="10.00">refDir: metadata</text>
<text text-anchor="middle" x="260" y="-234" font-family="sans" font-size="10.00">ref_build: GRCh37</text>
<text text-anchor="middle" x="260" y="-223" font-family="sans" font-size="10.00">species: human</text>
</g>
<!-- 4&#45;&gt;2 -->
<g id="edge10" class="edge">
<title>4&#45;&gt;2</title>
<path fill="none" stroke="grey" stroke-width="2" d="M192.9,-215.88C169.9,-205.39 144.68,-193.88 123.66,-184.29"/>
<polygon fill="grey" stroke="grey" stroke-width="2" points="124.87,-180.99 114.32,-180.03 121.96,-187.36 124.87,-180.99"/>
</g>
<!-- 4&#45;&gt;6 -->
<g id="edge13" class="edge">
<title>4&#45;&gt;6</title>
<path fill="none" stroke="grey" stroke-width="2" d="M260,-215.88C260,-207.47 260,-198.4 260,-190.19"/>
<polygon fill="grey" stroke="grey" stroke-width="2" points="263.5,-190.03 260,-180.03 256.5,-190.03 263.5,-190.03"/>
</g>
<!-- 8 -->
<g id="node9" class="node">
<title>8</title>
<path fill="none" stroke="#56d8b1" stroke-width="2" d="M445.5,-180C445.5,-180 378.5,-180 378.5,-180 372.5,-180 366.5,-174 366.5,-168 366.5,-168 366.5,-156 366.5,-156 366.5,-150 372.5,-144 378.5,-144 378.5,-144 445.5,-144 445.5,-144 451.5,-144 457.5,-150 457.5,-156 457.5,-156 457.5,-168 457.5,-168 457.5,-174 451.5,-180 445.5,-180"/>
<text text-anchor="middle" x="412" y="-159.5" font-family="sans" font-size="10.00">preprocessCNV</text>
</g>
<!-- 4&#45;&gt;8 -->
<g id="edge16" class="edge">
<title>4&#45;&gt;8</title>
<path fill="none" stroke="grey" stroke-width="2" d="M315.74,-215.88C334.32,-205.67 354.65,-194.5 371.82,-185.07"/>
<polygon fill="grey" stroke="grey" stroke-width="2" points="373.93,-187.91 381.01,-180.03 370.56,-181.77 373.93,-187.91"/>
</g>
<!-- 5 -->
<g id="node6" class="node">
<title>5</title>
<path fill="none" stroke="#56d8c9" stroke-width="2" d="M336,-108C336,-108 188,-108 188,-108 182,-108 176,-102 176,-96 176,-96 176,-84 176,-84 176,-78 182,-72 188,-72 188,-72 336,-72 336,-72 342,-72 348,-78 348,-84 348,-84 348,-96 348,-96 348,-102 342,-108 336,-108"/>
<text text-anchor="middle" x="262" y="-87.5" font-family="sans" font-size="10.00">make_ExpressionTranscripts_SE</text>
</g>
<!-- 5&#45;&gt;0 -->
<g id="edge2" class="edge">
<title>5&#45;&gt;0</title>
<path fill="none" stroke="grey" stroke-width="2" d="M339.14,-71.97C392.75,-60.13 463.39,-44.53 514.1,-33.33"/>
<polygon fill="grey" stroke="grey" stroke-width="2" points="514.96,-36.73 523.97,-31.15 513.45,-29.89 514.96,-36.73"/>
</g>
<!-- 6&#45;&gt;5 -->
<g id="edge11" class="edge">
<title>6&#45;&gt;5</title>
<path fill="none" stroke="grey" stroke-width="2" d="M260.49,-143.7C260.71,-135.98 260.98,-126.71 261.23,-118.11"/>
<polygon fill="grey" stroke="grey" stroke-width="2" points="264.72,-118.2 261.51,-108.1 257.73,-118 264.72,-118.2"/>
</g>
<!-- 7 -->
<g id="node8" class="node">
<title>7</title>
<path fill="none" stroke="#d87d56" stroke-width="2" d="M458.5,-108C458.5,-108 395.5,-108 395.5,-108 389.5,-108 383.5,-102 383.5,-96 383.5,-96 383.5,-84 383.5,-84 383.5,-78 389.5,-72 395.5,-72 395.5,-72 458.5,-72 458.5,-72 464.5,-72 470.5,-78 470.5,-84 470.5,-84 470.5,-96 470.5,-96 470.5,-102 464.5,-108 458.5,-108"/>
<text text-anchor="middle" x="427" y="-87.5" font-family="sans" font-size="10.00">make_CNV_SE</text>
</g>
<!-- 7&#45;&gt;0 -->
<g id="edge3" class="edge">
<title>7&#45;&gt;0</title>
<path fill="none" stroke="grey" stroke-width="2" d="M464.18,-71.88C484.87,-62.35 510.8,-50.41 532.78,-40.28"/>
<polygon fill="grey" stroke="grey" stroke-width="2" points="534.32,-43.43 541.94,-36.07 531.39,-37.07 534.32,-43.43"/>
</g>
<!-- 8&#45;&gt;7 -->
<g id="edge14" class="edge">
<title>8&#45;&gt;7</title>
<path fill="none" stroke="grey" stroke-width="2" d="M415.71,-143.7C417.36,-135.98 419.35,-126.71 421.19,-118.11"/>
<polygon fill="grey" stroke="grey" stroke-width="2" points="424.66,-118.62 423.33,-108.1 417.82,-117.15 424.66,-118.62"/>
</g>
<!-- 9 -->
<g id="node10" class="node">
<title>9</title>
<path fill="none" stroke="#5682d8" stroke-width="2" d="M442.5,-265.5C442.5,-265.5 381.5,-265.5 381.5,-265.5 375.5,-265.5 369.5,-259.5 369.5,-253.5 369.5,-253.5 369.5,-241.5 369.5,-241.5 369.5,-235.5 375.5,-229.5 381.5,-229.5 381.5,-229.5 442.5,-229.5 442.5,-229.5 448.5,-229.5 454.5,-235.5 454.5,-241.5 454.5,-241.5 454.5,-253.5 454.5,-253.5 454.5,-259.5 448.5,-265.5 442.5,-265.5"/>
<text text-anchor="middle" x="412" y="-245" font-family="sans" font-size="10.00">downloadCNV</text>
</g>
<!-- 9&#45;&gt;8 -->
<g id="edge15" class="edge">
<title>9&#45;&gt;8</title>
<path fill="none" stroke="grey" stroke-width="2" d="M412,-229.2C412,-218 412,-203.19 412,-190.41"/>
<polygon fill="grey" stroke="grey" stroke-width="2" points="415.5,-190.28 412,-180.28 408.5,-190.28 415.5,-190.28"/>
</g>
<!-- 10 -->
<g id="node11" class="node">
<title>10</title>
<path fill="none" stroke="#d8d356" stroke-width="2" d="M627,-108C627,-108 531,-108 531,-108 525,-108 519,-102 519,-96 519,-96 519,-84 519,-84 519,-78 525,-72 531,-72 531,-72 627,-72 627,-72 633,-72 639,-78 639,-84 639,-84 639,-96 639,-96 639,-102 633,-108 627,-108"/>
<text text-anchor="middle" x="579" y="-87.5" font-family="sans" font-size="10.00">annotateSampleData</text>
</g>
<!-- 10&#45;&gt;0 -->
<g id="edge4" class="edge">
<title>10&#45;&gt;0</title>
<path fill="none" stroke="grey" stroke-width="2" d="M579,-71.7C579,-63.98 579,-54.71 579,-46.11"/>
<polygon fill="grey" stroke="grey" stroke-width="2" points="582.5,-46.1 579,-36.1 575.5,-46.1 582.5,-46.1"/>
</g>
<!-- 11 -->
<g id="node12" class="node">
<title>11</title>
<path fill="none" stroke="#566bd8" stroke-width="2" d="M700,-180C700,-180 488,-180 488,-180 482,-180 476,-174 476,-168 476,-168 476,-156 476,-156 476,-150 482,-144 488,-144 488,-144 700,-144 700,-144 706,-144 712,-150 712,-156 712,-156 712,-168 712,-168 712,-174 706,-180 700,-180"/>
<text text-anchor="middle" x="594" y="-159.5" font-family="sans" font-size="10.00">mapSampleNamesToCellosaurusAccessionID</text>
</g>
<!-- 11&#45;&gt;10 -->
<g id="edge17" class="edge">
<title>11&#45;&gt;10</title>
<path fill="none" stroke="grey" stroke-width="2" d="M590.29,-143.7C588.64,-135.98 586.65,-126.71 584.81,-118.11"/>
<polygon fill="grey" stroke="grey" stroke-width="2" points="588.18,-117.15 582.67,-108.1 581.34,-118.62 588.18,-117.15"/>
</g>
<!-- 12 -->
<g id="node13" class="node">
<title>12</title>
<path fill="none" stroke="#5692d8" stroke-width="2" d="M825,-265.5C825,-265.5 733,-265.5 733,-265.5 727,-265.5 721,-259.5 721,-253.5 721,-253.5 721,-241.5 721,-241.5 721,-235.5 727,-229.5 733,-229.5 733,-229.5 825,-229.5 825,-229.5 831,-229.5 837,-235.5 837,-241.5 837,-241.5 837,-253.5 837,-253.5 837,-259.5 831,-265.5 825,-265.5"/>
<text text-anchor="middle" x="779" y="-245" font-family="sans" font-size="10.00">preprocessMetadata</text>
</g>
<!-- 12&#45;&gt;11 -->
<g id="edge19" class="edge">
<title>12&#45;&gt;11</title>
<path fill="none" stroke="grey" stroke-width="2" d="M741.12,-229.4C712.18,-216.34 672.15,-198.27 641.14,-184.28"/>
<polygon fill="grey" stroke="grey" stroke-width="2" points="642.39,-181 631.83,-180.08 639.51,-187.38 642.39,-181"/>
</g>
<!-- 16 -->
<g id="node17" class="node">
<title>16</title>
<path fill="none" stroke="#b6d856" stroke-width="2" d="M1019.5,-180C1019.5,-180 910.5,-180 910.5,-180 904.5,-180 898.5,-174 898.5,-168 898.5,-168 898.5,-156 898.5,-156 898.5,-150 904.5,-144 910.5,-144 910.5,-144 1019.5,-144 1019.5,-144 1025.5,-144 1031.5,-150 1031.5,-156 1031.5,-156 1031.5,-168 1031.5,-168 1031.5,-174 1025.5,-180 1019.5,-180"/>
<text text-anchor="middle" x="965" y="-159.5" font-family="sans" font-size="10.00">annotateTreatmentData</text>
</g>
<!-- 12&#45;&gt;16 -->
<g id="edge22" class="edge">
<title>12&#45;&gt;16</title>
<path fill="none" stroke="grey" stroke-width="2" d="M817.09,-229.4C846.18,-216.34 886.43,-198.27 917.6,-184.28"/>
<polygon fill="grey" stroke="grey" stroke-width="2" points="919.27,-187.36 926.96,-180.08 916.41,-180.98 919.27,-187.36"/>
</g>
<!-- 13 -->
<g id="node14" class="node">
<title>13</title>
<path fill="none" stroke="#d89556" stroke-width="2" d="M755,-351C755,-351 625,-351 625,-351 619,-351 613,-345 613,-339 613,-339 613,-327 613,-327 613,-321 619,-315 625,-315 625,-315 755,-315 755,-315 761,-315 767,-321 767,-327 767,-327 767,-339 767,-339 767,-345 761,-351 755,-351"/>
<text text-anchor="middle" x="690" y="-330.5" font-family="sans" font-size="10.00">downloadSampleAnnotation</text>
</g>
<!-- 13&#45;&gt;12 -->
<g id="edge20" class="edge">
<title>13&#45;&gt;12</title>
<path fill="none" stroke="grey" stroke-width="2" d="M708.44,-314.7C721.33,-302.61 738.72,-286.29 753.01,-272.88"/>
<polygon fill="grey" stroke="grey" stroke-width="2" points="755.68,-275.17 760.58,-265.78 750.9,-270.07 755.68,-275.17"/>
</g>
<!-- 14 -->
<g id="node15" class="node">
<title>14</title>
<path fill="none" stroke="#56d873" stroke-width="2" d="M940.5,-351C940.5,-351 797.5,-351 797.5,-351 791.5,-351 785.5,-345 785.5,-339 785.5,-339 785.5,-327 785.5,-327 785.5,-321 791.5,-315 797.5,-315 797.5,-315 940.5,-315 940.5,-315 946.5,-315 952.5,-321 952.5,-327 952.5,-327 952.5,-339 952.5,-339 952.5,-345 946.5,-351 940.5,-351"/>
<text text-anchor="middle" x="869" y="-330.5" font-family="sans" font-size="10.00">downloadTreatmentAnnotation</text>
</g>
<!-- 14&#45;&gt;12 -->
<g id="edge21" class="edge">
<title>14&#45;&gt;12</title>
<path fill="none" stroke="grey" stroke-width="2" d="M850.35,-314.7C837.32,-302.61 819.73,-286.29 805.28,-272.88"/>
<polygon fill="grey" stroke="grey" stroke-width="2" points="807.34,-270.01 797.62,-265.78 802.57,-275.15 807.34,-270.01"/>
</g>
<!-- 15 -->
<g id="node16" class="node">
<title>15</title>
<path fill="none" stroke="#56a9d8" stroke-width="2" d="M868,-180C868,-180 742,-180 742,-180 736,-180 730,-174 730,-168 730,-168 730,-156 730,-156 730,-150 736,-144 742,-144 742,-144 868,-144 868,-144 874,-144 880,-150 880,-156 880,-156 880,-168 880,-168 880,-174 874,-180 868,-180"/>
<text text-anchor="middle" x="805" y="-159.5" font-family="sans" font-size="10.00">preprocessCellosaurusData</text>
</g>
<!-- 15&#45;&gt;10 -->
<g id="edge18" class="edge">
<title>15&#45;&gt;10</title>
<path fill="none" stroke="grey" stroke-width="2" d="M750,-143.97C718.01,-134.06 677.52,-121.51 643.96,-111.12"/>
<polygon fill="grey" stroke="grey" stroke-width="2" points="644.83,-107.73 634.24,-108.11 642.76,-114.41 644.83,-107.73"/>
</g>
<!-- 16&#45;&gt;0 -->
<g id="edge5" class="edge">
<title>16&#45;&gt;0</title>
<path fill="none" stroke="grey" stroke-width="2" d="M898.31,-145.91C895.16,-145.25 892.05,-144.61 889,-144 799.16,-125.99 767.82,-149.25 686,-108 665.23,-97.53 665.69,-87.11 648,-72 636.17,-61.9 622.69,-51.34 610.8,-42.34"/>
<polygon fill="grey" stroke="grey" stroke-width="2" points="612.57,-39.29 602.47,-36.08 608.37,-44.89 612.57,-39.29"/>
</g>
<!-- 17 -->
<g id="node18" class="node">
<title>17</title>
<path fill="none" stroke="#d85656" stroke-width="2" d="M790.5,-108C790.5,-108 707.5,-108 707.5,-108 701.5,-108 695.5,-102 695.5,-96 695.5,-96 695.5,-84 695.5,-84 695.5,-78 701.5,-72 707.5,-72 707.5,-72 790.5,-72 790.5,-72 796.5,-72 802.5,-78 802.5,-84 802.5,-84 802.5,-96 802.5,-96 802.5,-102 796.5,-108 790.5,-108"/>
<text text-anchor="middle" x="749" y="-87.5" font-family="sans" font-size="10.00">downloadMutation</text>
</g>
<!-- 17&#45;&gt;0 -->
<g id="edge6" class="edge">
<title>17&#45;&gt;0</title>
<path fill="none" stroke="grey" stroke-width="2" d="M707.41,-71.88C683.97,-62.22 654.5,-50.09 629.7,-39.88"/>
<polygon fill="grey" stroke="grey" stroke-width="2" points="631.03,-36.64 620.45,-36.07 628.37,-43.11 631.03,-36.64"/>
</g>
<!-- 18 -->
<g id="node19" class="node">
<title>18</title>
<path fill="none" stroke="#d8bc56" stroke-width="2" d="M931,-108C931,-108 833,-108 833,-108 827,-108 821,-102 821,-96 821,-96 821,-84 821,-84 821,-78 827,-72 833,-72 833,-72 931,-72 931,-72 937,-72 943,-78 943,-84 943,-84 943,-96 943,-96 943,-102 937,-108 931,-108"/>
<text text-anchor="middle" x="882" y="-87.5" font-family="sans" font-size="10.00">downloadMethylation</text>
</g>
<!-- 18&#45;&gt;0 -->
<g id="edge7" class="edge">
<title>18&#45;&gt;0</title>
<path fill="none" stroke="grey" stroke-width="2" d="M820.82,-74.31C817.5,-73.52 814.21,-72.75 811,-72 754.78,-58.85 690.81,-44.26 644.3,-33.73"/>
<polygon fill="grey" stroke="grey" stroke-width="2" points="644.88,-30.27 634.35,-31.47 643.33,-37.1 644.88,-30.27"/>
</g>
</g>
</svg>
