<?xml version="1.0" encoding="UTF-8" standalone="no"?>
<!DOCTYPE svg PUBLIC "-//W3C//DTD SVG 1.1//EN"
 "http://www.w3.org/Graphics/SVG/1.1/DTD/svg11.dtd">
<!-- Generated by graphviz version 2.43.0 (0)
 -->
<!-- Title: snakemake_dag Pages: 1 -->
<svg width="837pt" height="116pt"
 viewBox="0.00 0.00 837.00 116.00" xmlns="http://www.w3.org/2000/svg" xmlns:xlink="http://www.w3.org/1999/xlink">
<g id="graph0" class="graph" transform="scale(1 1) rotate(0) translate(4 112)">
<title>snakemake_dag</title>
<polygon fill="white" stroke="transparent" points="-4,4 -4,-112 833,-112 833,4 -4,4"/>
<!-- 0 -->
<g id="node1" class="node">
<title>0</title>
<path fill="none" stroke="#c6d856" stroke-width="2" d="M480.5,-36C480.5,-36 450.5,-36 450.5,-36 444.5,-36 438.5,-30 438.5,-24 438.5,-24 438.5,-12 438.5,-12 438.5,-6 444.5,0 450.5,0 450.5,0 480.5,0 480.5,0 486.5,0 492.5,-6 492.5,-12 492.5,-12 492.5,-24 492.5,-24 492.5,-30 486.5,-36 480.5,-36"/>
<text text-anchor="middle" x="465.5" y="-15.5" font-family="sans" font-size="10.00">all</text>
</g>
<!-- 1 -->
<g id="node2" class="node">
<title>1</title>
<path fill="none" stroke="#78d856" stroke-width="2" d="M135,-108C135,-108 12,-108 12,-108 6,-108 0,-102 0,-96 0,-96 0,-84 0,-84 0,-78 6,-72 12,-72 12,-72 135,-72 135,-72 141,-72 147,-78 147,-84 147,-84 147,-96 147,-96 147,-102 141,-108 135,-108"/>
<text text-anchor="middle" x="73.5" y="-87.5" font-family="sans" font-size="10.00">downloadSampleMetadata</text>
</g>
<!-- 1&#45;&gt;0 -->
<g id="edge1" class="edge">
<title>1&#45;&gt;0</title>
<path fill="none" stroke="grey" stroke-width="2" d="M147.24,-73.77C150.37,-73.16 153.46,-72.57 156.5,-72 254.19,-53.62 369.76,-34.49 427.98,-25.04"/>
<polygon fill="grey" stroke="grey" stroke-width="2" points="428.85,-28.44 438.17,-23.39 427.74,-21.53 428.85,-28.44"/>
</g>
<!-- 2 -->
<g id="node3" class="node">
<title>2</title>
<path fill="none" stroke="#d8a456" stroke-width="2" d="M313.5,-108C313.5,-108 177.5,-108 177.5,-108 171.5,-108 165.5,-102 165.5,-96 165.5,-96 165.5,-84 165.5,-84 165.5,-78 171.5,-72 177.5,-72 177.5,-72 313.5,-72 313.5,-72 319.5,-72 325.5,-78 325.5,-84 325.5,-84 325.5,-96 325.5,-96 325.5,-102 319.5,-108 313.5,-108"/>
<text text-anchor="middle" x="245.5" y="-87.5" font-family="sans" font-size="10.00">downloadTreatmentMetadata</text>
</g>
<!-- 2&#45;&gt;0 -->
<g id="edge2" class="edge">
<title>2&#45;&gt;0</title>
<path fill="none" stroke="grey" stroke-width="2" d="M299.04,-71.97C339.09,-59.22 392.85,-42.12 428.3,-30.84"/>
<polygon fill="grey" stroke="grey" stroke-width="2" points="429.76,-34.04 438.23,-27.68 427.64,-27.37 429.76,-34.04"/>
</g>
<!-- 3 -->
<g id="node4" class="node">
<title>3</title>
<path fill="none" stroke="#56d8c9" stroke-width="2" d="M453.5,-108C453.5,-108 355.5,-108 355.5,-108 349.5,-108 343.5,-102 343.5,-96 343.5,-96 343.5,-84 343.5,-84 343.5,-78 349.5,-72 355.5,-72 355.5,-72 453.5,-72 453.5,-72 459.5,-72 465.5,-78 465.5,-84 465.5,-84 465.5,-96 465.5,-96 465.5,-102 459.5,-108 453.5,-108"/>
<text text-anchor="middle" x="404.5" y="-87.5" font-family="sans" font-size="10.00">downloadMethylation</text>
</g>
<!-- 3&#45;&gt;0 -->
<g id="edge3" class="edge">
<title>3&#45;&gt;0</title>
<path fill="none" stroke="grey" stroke-width="2" d="M419.58,-71.7C426.89,-63.3 435.81,-53.07 443.84,-43.86"/>
<polygon fill="grey" stroke="grey" stroke-width="2" points="446.66,-45.94 450.59,-36.1 441.39,-41.34 446.66,-45.94"/>
</g>
<!-- 4 -->
<g id="node5" class="node">
<title>4</title>
<path fill="none" stroke="#56a2d8" stroke-width="2" d="M557,-108C557,-108 496,-108 496,-108 490,-108 484,-102 484,-96 484,-96 484,-84 484,-84 484,-78 490,-72 496,-72 496,-72 557,-72 557,-72 563,-72 569,-78 569,-84 569,-84 569,-96 569,-96 569,-102 563,-108 557,-108"/>
<text text-anchor="middle" x="526.5" y="-87.5" font-family="sans" font-size="10.00">downloadCNV</text>
</g>
<!-- 4&#45;&gt;0 -->
<g id="edge4" class="edge">
<title>4&#45;&gt;0</title>
<path fill="none" stroke="grey" stroke-width="2" d="M511.42,-71.7C504.11,-63.3 495.19,-53.07 487.16,-43.86"/>
<polygon fill="grey" stroke="grey" stroke-width="2" points="489.61,-41.34 480.41,-36.1 484.34,-45.94 489.61,-41.34"/>
</g>
<!-- 5 -->
<g id="node6" class="node">
<title>5</title>
<path fill="none" stroke="#56d87b" stroke-width="2" d="M682,-108C682,-108 599,-108 599,-108 593,-108 587,-102 587,-96 587,-96 587,-84 587,-84 587,-78 593,-72 599,-72 599,-72 682,-72 682,-72 688,-72 694,-78 694,-84 694,-84 694,-96 694,-96 694,-102 688,-108 682,-108"/>
<text text-anchor="middle" x="640.5" y="-87.5" font-family="sans" font-size="10.00">downloadMutation</text>
</g>
<!-- 5&#45;&gt;0 -->
<g id="edge5" class="edge">
<title>5&#45;&gt;0</title>
<path fill="none" stroke="grey" stroke-width="2" d="M597.69,-71.88C568.36,-60.15 529.88,-44.75 502,-33.6"/>
<polygon fill="grey" stroke="grey" stroke-width="2" points="503.2,-30.31 492.62,-29.85 500.6,-36.81 503.2,-30.31"/>
</g>
<!-- 6 -->
<g id="node7" class="node">
<title>6</title>
<path fill="none" stroke="#d85656" stroke-width="2" d="M817,-108C817,-108 724,-108 724,-108 718,-108 712,-102 712,-96 712,-96 712,-84 712,-84 712,-78 718,-72 724,-72 724,-72 817,-72 817,-72 823,-72 829,-78 829,-84 829,-84 829,-96 829,-96 829,-102 823,-108 817,-108"/>
<text text-anchor="middle" x="770.5" y="-87.5" font-family="sans" font-size="10.00">downloadExpression</text>
</g>
<!-- 6&#45;&gt;0 -->
<g id="edge6" class="edge">
<title>6&#45;&gt;0</title>
<path fill="none" stroke="grey" stroke-width="2" d="M711.7,-73.98C708.93,-73.3 706.19,-72.64 703.5,-72 632.67,-55.13 549.59,-37.01 502.69,-26.93"/>
<polygon fill="grey" stroke="grey" stroke-width="2" points="503.2,-23.46 492.69,-24.78 501.73,-30.3 503.2,-23.46"/>
</g>
</g>
</svg>
