<?xml version="1.0" encoding="UTF-8" standalone="no"?>
<!DOCTYPE svg PUBLIC "-//W3C//DTD SVG 1.1//EN"
 "http://www.w3.org/Graphics/SVG/1.1/DTD/svg11.dtd">
<!-- Generated by graphviz version 2.43.0 (0)
 -->
<!-- Title: snakemake_dag Pages: 1 -->
<svg width="725pt" height="287pt"
 viewBox="0.00 0.00 725.00 287.00" xmlns="http://www.w3.org/2000/svg" xmlns:xlink="http://www.w3.org/1999/xlink">
<g id="graph0" class="graph" transform="scale(1 1) rotate(0) translate(4 283)">
<title>snakemake_dag</title>
<polygon fill="white" stroke="transparent" points="-4,4 -4,-283 721,-283 721,4 -4,4"/>
<!-- 0 -->
<g id="node1" class="node">
<title>0</title>
<path fill="none" stroke="#97d856" stroke-width="2" d="M451,-36C451,-36 365,-36 365,-36 359,-36 353,-30 353,-24 353,-24 353,-12 353,-12 353,-6 359,0 365,0 365,0 451,0 451,0 457,0 463,-6 463,-12 463,-12 463,-24 463,-24 463,-30 457,-36 451,-36"/>
<text text-anchor="middle" x="408" y="-15.5" font-family="sans" font-size="10.00">build_PharmacoSet</text>
</g>
<!-- 1 -->
<g id="node2" class="node">
<title>1</title>
<path fill="none" stroke="#59d856" stroke-width="2" d="M334,-108C334,-108 208,-108 208,-108 202,-108 196,-102 196,-96 196,-96 196,-84 196,-84 196,-78 202,-72 208,-72 208,-72 334,-72 334,-72 340,-72 346,-78 346,-84 346,-84 346,-96 346,-96 346,-102 340,-108 334,-108"/>
<text text-anchor="middle" x="271" y="-87.5" font-family="sans" font-size="10.00">make_ExpressionGenes_SE</text>
</g>
<!-- 1&#45;&gt;0 -->
<g id="edge1" class="edge">
<title>1&#45;&gt;0</title>
<path fill="none" stroke="grey" stroke-width="2" d="M304.51,-71.88C322.84,-62.51 345.74,-50.81 365.33,-40.8"/>
<polygon fill="grey" stroke="grey" stroke-width="2" points="367.04,-43.86 374.36,-36.19 363.86,-37.62 367.04,-43.86"/>
</g>
<!-- 2 -->
<g id="node3" class="node">
<title>2</title>
<path fill="none" stroke="#b6d856" stroke-width="2" d="M336,-180C336,-180 206,-180 206,-180 200,-180 194,-174 194,-168 194,-168 194,-156 194,-156 194,-150 200,-144 206,-144 206,-144 336,-144 336,-144 342,-144 348,-150 348,-156 348,-156 348,-168 348,-168 348,-174 342,-180 336,-180"/>
<text text-anchor="middle" x="271" y="-159.5" font-family="sans" font-size="10.00">preprocessExpressionGenes</text>
</g>
<!-- 2&#45;&gt;1 -->
<g id="edge6" class="edge">
<title>2&#45;&gt;1</title>
<path fill="none" stroke="grey" stroke-width="2" d="M271,-143.7C271,-135.98 271,-126.71 271,-118.11"/>
<polygon fill="grey" stroke="grey" stroke-width="2" points="274.5,-118.1 271,-108.1 267.5,-118.1 274.5,-118.1"/>
</g>
<!-- 3 -->
<g id="node4" class="node">
<title>3</title>
<path fill="none" stroke="#56d8d8" stroke-width="2" d="M154.5,-265.5C154.5,-265.5 61.5,-265.5 61.5,-265.5 55.5,-265.5 49.5,-259.5 49.5,-253.5 49.5,-253.5 49.5,-241.5 49.5,-241.5 49.5,-235.5 55.5,-229.5 61.5,-229.5 61.5,-229.5 154.5,-229.5 154.5,-229.5 160.5,-229.5 166.5,-235.5 166.5,-241.5 166.5,-241.5 166.5,-253.5 166.5,-253.5 166.5,-259.5 160.5,-265.5 154.5,-265.5"/>
<text text-anchor="middle" x="108" y="-245" font-family="sans" font-size="10.00">downloadExpression</text>
</g>
<!-- 3&#45;&gt;2 -->
<g id="edge7" class="edge">
<title>3&#45;&gt;2</title>
<path fill="none" stroke="grey" stroke-width="2" d="M141.38,-229.4C166.65,-216.46 201.54,-198.58 228.76,-184.64"/>
<polygon fill="grey" stroke="grey" stroke-width="2" points="230.36,-187.75 237.67,-180.08 227.17,-181.52 230.36,-187.75"/>
</g>
<!-- 6 -->
<g id="node7" class="node">
<title>6</title>
<path fill="none" stroke="#569ad8" stroke-width="2" d="M164,-180C164,-180 12,-180 12,-180 6,-180 0,-174 0,-168 0,-168 0,-156 0,-156 0,-150 6,-144 12,-144 12,-144 164,-144 164,-144 170,-144 176,-150 176,-156 176,-156 176,-168 176,-168 176,-174 170,-180 164,-180"/>
<text text-anchor="middle" x="88" y="-159.5" font-family="sans" font-size="10.00">preprocessExpressionTranscripts</text>
</g>
<!-- 3&#45;&gt;6 -->
<g id="edge10" class="edge">
<title>3&#45;&gt;6</title>
<path fill="none" stroke="grey" stroke-width="2" d="M103.86,-229.2C101.15,-217.89 97.55,-202.89 94.47,-190.03"/>
<polygon fill="grey" stroke="grey" stroke-width="2" points="97.87,-189.19 92.14,-180.28 91.06,-190.82 97.87,-189.19"/>
</g>
<!-- 4 -->
<g id="node5" class="node">
<title>4</title>
<path fill="none" stroke="#567bd8" stroke-width="2" d="M326,-279C326,-279 216,-279 216,-279 210,-279 204,-273 204,-267 204,-267 204,-228 204,-228 204,-222 210,-216 216,-216 216,-216 326,-216 326,-216 332,-216 338,-222 338,-228 338,-228 338,-267 338,-267 338,-273 332,-279 326,-279"/>
<text text-anchor="middle" x="271" y="-267" font-family="sans" font-size="10.00">getGENCODEannotation</text>
<text text-anchor="middle" x="271" y="-256" font-family="sans" font-size="10.00">gencode_release: 19</text>
<text text-anchor="middle" x="271" y="-245" font-family="sans" font-size="10.00">refDir: metadata</text>
<text text-anchor="middle" x="271" y="-234" font-family="sans" font-size="10.00">ref_build: GRCh37</text>
<text text-anchor="middle" x="271" y="-223" font-family="sans" font-size="10.00">species: human</text>
</g>
<!-- 4&#45;&gt;2 -->
<g id="edge8" class="edge">
<title>4&#45;&gt;2</title>
<path fill="none" stroke="grey" stroke-width="2" d="M271,-215.88C271,-207.47 271,-198.4 271,-190.19"/>
<polygon fill="grey" stroke="grey" stroke-width="2" points="274.5,-190.03 271,-180.03 267.5,-190.03 274.5,-190.03"/>
</g>
<!-- 4&#45;&gt;6 -->
<g id="edge11" class="edge">
<title>4&#45;&gt;6</title>
<path fill="none" stroke="grey" stroke-width="2" d="M203.9,-215.88C180.9,-205.39 155.68,-193.88 134.66,-184.29"/>
<polygon fill="grey" stroke="grey" stroke-width="2" points="135.87,-180.99 125.32,-180.03 132.96,-187.36 135.87,-180.99"/>
</g>
<!-- 8 -->
<g id="node9" class="node">
<title>8</title>
<path fill="none" stroke="#d87556" stroke-width="2" d="M445.5,-180C445.5,-180 378.5,-180 378.5,-180 372.5,-180 366.5,-174 366.5,-168 366.5,-168 366.5,-156 366.5,-156 366.5,-150 372.5,-144 378.5,-144 378.5,-144 445.5,-144 445.5,-144 451.5,-144 457.5,-150 457.5,-156 457.5,-156 457.5,-168 457.5,-168 457.5,-174 451.5,-180 445.5,-180"/>
<text text-anchor="middle" x="412" y="-159.5" font-family="sans" font-size="10.00">preprocessCNV</text>
</g>
<!-- 4&#45;&gt;8 -->
<g id="edge14" class="edge">
<title>4&#45;&gt;8</title>
<path fill="none" stroke="grey" stroke-width="2" d="M322.7,-215.88C339.78,-205.77 358.46,-194.71 374.29,-185.33"/>
<polygon fill="grey" stroke="grey" stroke-width="2" points="376.43,-188.13 383.25,-180.03 372.86,-182.11 376.43,-188.13"/>
</g>
<!-- 5 -->
<g id="node6" class="node">
<title>5</title>
<path fill="none" stroke="#d85656" stroke-width="2" d="M164,-108C164,-108 16,-108 16,-108 10,-108 4,-102 4,-96 4,-96 4,-84 4,-84 4,-78 10,-72 16,-72 16,-72 164,-72 164,-72 170,-72 176,-78 176,-84 176,-84 176,-96 176,-96 176,-102 170,-108 164,-108"/>
<text text-anchor="middle" x="90" y="-87.5" font-family="sans" font-size="10.00">make_ExpressionTranscripts_SE</text>
</g>
<!-- 5&#45;&gt;0 -->
<g id="edge2" class="edge">
<title>5&#45;&gt;0</title>
<path fill="none" stroke="grey" stroke-width="2" d="M167.38,-71.97C221.16,-60.13 292.02,-44.53 342.9,-33.33"/>
<polygon fill="grey" stroke="grey" stroke-width="2" points="343.78,-36.72 352.8,-31.15 342.28,-29.88 343.78,-36.72"/>
</g>
<!-- 6&#45;&gt;5 -->
<g id="edge9" class="edge">
<title>6&#45;&gt;5</title>
<path fill="none" stroke="grey" stroke-width="2" d="M88.49,-143.7C88.71,-135.98 88.98,-126.71 89.23,-118.11"/>
<polygon fill="grey" stroke="grey" stroke-width="2" points="92.72,-118.2 89.51,-108.1 85.73,-118 92.72,-118.2"/>
</g>
<!-- 7 -->
<g id="node8" class="node">
<title>7</title>
<path fill="none" stroke="#78d856" stroke-width="2" d="M439.5,-108C439.5,-108 376.5,-108 376.5,-108 370.5,-108 364.5,-102 364.5,-96 364.5,-96 364.5,-84 364.5,-84 364.5,-78 370.5,-72 376.5,-72 376.5,-72 439.5,-72 439.5,-72 445.5,-72 451.5,-78 451.5,-84 451.5,-84 451.5,-96 451.5,-96 451.5,-102 445.5,-108 439.5,-108"/>
<text text-anchor="middle" x="408" y="-87.5" font-family="sans" font-size="10.00">make_CNV_SE</text>
</g>
<!-- 7&#45;&gt;0 -->
<g id="edge3" class="edge">
<title>7&#45;&gt;0</title>
<path fill="none" stroke="grey" stroke-width="2" d="M408,-71.7C408,-63.98 408,-54.71 408,-46.11"/>
<polygon fill="grey" stroke="grey" stroke-width="2" points="411.5,-46.1 408,-36.1 404.5,-46.1 411.5,-46.1"/>
</g>
<!-- 8&#45;&gt;7 -->
<g id="edge12" class="edge">
<title>8&#45;&gt;7</title>
<path fill="none" stroke="grey" stroke-width="2" d="M411.01,-143.7C410.57,-135.98 410.04,-126.71 409.55,-118.11"/>
<polygon fill="grey" stroke="grey" stroke-width="2" points="413.04,-117.89 408.98,-108.1 406.05,-118.29 413.04,-117.89"/>
</g>
<!-- 9 -->
<g id="node10" class="node">
<title>9</title>
<path fill="none" stroke="#d89556" stroke-width="2" d="M442.5,-265.5C442.5,-265.5 381.5,-265.5 381.5,-265.5 375.5,-265.5 369.5,-259.5 369.5,-253.5 369.5,-253.5 369.5,-241.5 369.5,-241.5 369.5,-235.5 375.5,-229.5 381.5,-229.5 381.5,-229.5 442.5,-229.5 442.5,-229.5 448.5,-229.5 454.5,-235.5 454.5,-241.5 454.5,-241.5 454.5,-253.5 454.5,-253.5 454.5,-259.5 448.5,-265.5 442.5,-265.5"/>
<text text-anchor="middle" x="412" y="-245" font-family="sans" font-size="10.00">downloadCNV</text>
</g>
<!-- 9&#45;&gt;8 -->
<g id="edge13" class="edge">
<title>9&#45;&gt;8</title>
<path fill="none" stroke="grey" stroke-width="2" d="M412,-229.2C412,-218 412,-203.19 412,-190.41"/>
<polygon fill="grey" stroke="grey" stroke-width="2" points="415.5,-190.28 412,-180.28 408.5,-190.28 415.5,-190.28"/>
</g>
<!-- 10 -->
<g id="node11" class="node">
<title>10</title>
<path fill="none" stroke="#56d8b9" stroke-width="2" d="M564.5,-108C564.5,-108 481.5,-108 481.5,-108 475.5,-108 469.5,-102 469.5,-96 469.5,-96 469.5,-84 469.5,-84 469.5,-78 475.5,-72 481.5,-72 481.5,-72 564.5,-72 564.5,-72 570.5,-72 576.5,-78 576.5,-84 576.5,-84 576.5,-96 576.5,-96 576.5,-102 570.5,-108 564.5,-108"/>
<text text-anchor="middle" x="523" y="-87.5" font-family="sans" font-size="10.00">downloadMutation</text>
</g>
<!-- 10&#45;&gt;0 -->
<g id="edge4" class="edge">
<title>10&#45;&gt;0</title>
<path fill="none" stroke="grey" stroke-width="2" d="M494.87,-71.88C479.83,-62.72 461.13,-51.34 444.94,-41.48"/>
<polygon fill="grey" stroke="grey" stroke-width="2" points="446.6,-38.4 436.24,-36.19 442.96,-44.38 446.6,-38.4"/>
</g>
<!-- 11 -->
<g id="node12" class="node">
<title>11</title>
<path fill="none" stroke="#56d87b" stroke-width="2" d="M705,-108C705,-108 607,-108 607,-108 601,-108 595,-102 595,-96 595,-96 595,-84 595,-84 595,-78 601,-72 607,-72 607,-72 705,-72 705,-72 711,-72 717,-78 717,-84 717,-84 717,-96 717,-96 717,-102 711,-108 705,-108"/>
<text text-anchor="middle" x="656" y="-87.5" font-family="sans" font-size="10.00">downloadMethylation</text>
</g>
<!-- 11&#45;&gt;0 -->
<g id="edge5" class="edge">
<title>11&#45;&gt;0</title>
<path fill="none" stroke="grey" stroke-width="2" d="M595.65,-71.97C558.53,-61.49 510.98,-48.07 473.03,-37.36"/>
<polygon fill="grey" stroke="grey" stroke-width="2" points="473.68,-33.9 463.1,-34.55 471.78,-40.64 473.68,-33.9"/>
</g>
</g>
</svg>
