<?xml version="1.0" encoding="UTF-8" standalone="no"?>
<!DOCTYPE svg PUBLIC "-//W3C//DTD SVG 1.1//EN"
 "http://www.w3.org/Graphics/SVG/1.1/DTD/svg11.dtd">
<!-- Generated by graphviz version 2.43.0 (0)
 -->
<!-- Title: snakemake_dag Pages: 1 -->
<svg width="3182pt" height="376pt"
 viewBox="0.00 0.00 3182.00 376.00" xmlns="http://www.w3.org/2000/svg" xmlns:xlink="http://www.w3.org/1999/xlink">
<g id="graph0" class="graph" transform="scale(1 1) rotate(0) translate(4 372)">
<title>snakemake_dag</title>
<polygon fill="white" stroke="transparent" points="-4,4 -4,-372 3178,-372 3178,4 -4,4"/>
<!-- 0 -->
<g id="node1" class="node">
<title>0</title>
<text text-anchor="start" x="1517.5" y="-161.6" font-family="sans" font-weight="bold" font-size="18.00">all</text>
<text text-anchor="start" x="1433.5" y="-137.8" font-family="sans" font-size="10.00"> </text>
<text text-anchor="start" x="1437.5" y="-137.8" font-family="sans" font-weight="bold" font-size="14.00">↪ input</text>
<text text-anchor="start" x="1495.5" y="-137.8" font-family="sans" font-size="10.00"> </text>
<text text-anchor="start" x="1433.5" y="-118" font-family="monospace" font-size="10.00">metadata/sampleAnnotation.csv</text>
<text text-anchor="start" x="1433.5" y="-100" font-family="monospace" font-size="10.00">metadata/treatmentAnnotation.csv</text>
<text text-anchor="start" x="1433.5" y="-82" font-family="monospace" font-size="10.00">rawdata/cnv</text>
<text text-anchor="start" x="1433.5" y="-64" font-family="monospace" font-size="10.00">rawdata/expression</text>
<text text-anchor="start" x="1433.5" y="-46" font-family="monospace" font-size="10.00">rawdata/methylation</text>
<text text-anchor="start" x="1433.5" y="-28" font-family="monospace" font-size="10.00">rawdata/mutation</text>
<text text-anchor="start" x="1619.5" y="-10" font-family="sans" font-size="10.00"> &#160;</text>
<polygon fill="#c6d957" stroke="#c6d957" points="1427.5,-152 1427.5,-152 1633.5,-152 1633.5,-152 1427.5,-152"/>
<polygon fill="#c6d957" stroke="#c6d957" points="1427.5,-22 1427.5,-22 1633.5,-22 1633.5,-22 1427.5,-22"/>
<polygon fill="none" stroke="#c6d957" stroke-width="2" points="1427,-1 1427,-181 1632,-181 1632,-1 1427,-1"/>
</g>
<!-- 1 -->
<g id="node2" class="node">
<title>1</title>
<text text-anchor="start" x="66.5" y="-329.6" font-family="sans" font-weight="bold" font-size="18.00">downloadSampleMetadata</text>
<text text-anchor="start" x="7.5" y="-305.8" font-family="sans" font-size="10.00"> </text>
<text text-anchor="start" x="11.5" y="-305.8" font-family="sans" font-weight="bold" font-size="14.00">↪ input</text>
<text text-anchor="start" x="69.5" y="-305.8" font-family="sans" font-size="10.00"> </text>
<text text-anchor="start" x="7.5" y="-286" font-family="monospace" font-size="10.00">data.broadinstitute.org/ccle/Cell_lines_annotations_20181226.txt</text>
<text text-anchor="start" x="314.5" y="-265.8" font-family="sans" font-size="10.00"> </text>
<text text-anchor="start" x="318.5" y="-265.8" font-family="sans" font-weight="bold" font-size="14.00">output →</text>
<text text-anchor="start" x="388.5" y="-265.8" font-family="sans" font-size="10.00"> </text>
<text text-anchor="start" x="7.5" y="-246" font-family="monospace" font-size="10.00">metadata/sampleAnnotation.csv</text>
<polygon fill="#57d97c" stroke="#57d97c" points="1.5,-320 1.5,-320 399.5,-320 399.5,-320 1.5,-320"/>
<polygon fill="#57d97c" stroke="#57d97c" points="1.5,-280 1.5,-280 399.5,-280 399.5,-280 1.5,-280"/>
<polygon fill="none" stroke="#57d97c" stroke-width="2" points="1,-237 1,-349 398,-349 398,-237 1,-237"/>
</g>
<!-- 1&#45;&gt;0 -->
<g id="edge4" class="edge">
<title>1&#45;&gt;0</title>
<path fill="none" stroke="grey" stroke-width="2" d="M343.7,-235.91C364.87,-229.08 386.59,-222.83 407.5,-218 769.77,-134.39 1211.14,-105.51 1415.53,-96.15"/>
<polygon fill="grey" stroke="grey" stroke-width="2" points="1415.85,-99.64 1425.68,-95.7 1415.53,-92.65 1415.85,-99.64"/>
</g>
<!-- 2 -->
<g id="node3" class="node">
<title>2</title>
<text text-anchor="start" x="595" y="-329.6" font-family="sans" font-weight="bold" font-size="18.00">downloadTreatmentMetadata</text>
<text text-anchor="start" x="424.5" y="-305.8" font-family="sans" font-size="10.00"> </text>
<text text-anchor="start" x="428.5" y="-305.8" font-family="sans" font-weight="bold" font-size="14.00">↪ input</text>
<text text-anchor="start" x="486.5" y="-305.8" font-family="sans" font-size="10.00"> </text>
<text text-anchor="start" x="424.5" y="-286" font-family="monospace" font-size="10.00">data.broadinstitute.org/ccle_legacy_data/pharmacological_profiling/CCLE_NP24.2009_profiling_2012.02.20.csv</text>
<text text-anchor="start" x="983.5" y="-265.8" font-family="sans" font-size="10.00"> </text>
<text text-anchor="start" x="987.5" y="-265.8" font-family="sans" font-weight="bold" font-size="14.00">output →</text>
<text text-anchor="start" x="1057.5" y="-265.8" font-family="sans" font-size="10.00"> </text>
<text text-anchor="start" x="424.5" y="-246" font-family="monospace" font-size="10.00">metadata/treatmentAnnotation.csv</text>
<polygon fill="#57a1d9" stroke="#57a1d9" points="418.5,-320 418.5,-320 1068.5,-320 1068.5,-320 418.5,-320"/>
<polygon fill="#57a1d9" stroke="#57a1d9" points="418.5,-280 418.5,-280 1068.5,-280 1068.5,-280 418.5,-280"/>
<polygon fill="none" stroke="#57a1d9" stroke-width="2" points="418,-237 418,-349 1067,-349 1067,-237 418,-237"/>
</g>
<!-- 2&#45;&gt;0 -->
<g id="edge6" class="edge">
<title>2&#45;&gt;0</title>
<path fill="none" stroke="grey" stroke-width="2" d="M963.03,-235.96C1110.42,-198.5 1298.23,-150.77 1416.2,-120.79"/>
<polygon fill="grey" stroke="grey" stroke-width="2" points="1417.16,-124.16 1425.99,-118.31 1415.43,-117.38 1417.16,-124.16"/>
</g>
<!-- 3 -->
<g id="node4" class="node">
<title>3</title>
<text text-anchor="start" x="1168.5" y="-329.6" font-family="sans" font-weight="bold" font-size="18.00">downloadMethylation</text>
<text text-anchor="start" x="1093.5" y="-305.8" font-family="sans" font-size="10.00"> </text>
<text text-anchor="start" x="1097.5" y="-305.8" font-family="sans" font-weight="bold" font-size="14.00">↪ input</text>
<text text-anchor="start" x="1155.5" y="-305.8" font-family="sans" font-size="10.00"> </text>
<text text-anchor="start" x="1093.5" y="-286" font-family="monospace" font-size="10.00">data.broadinstitute.org/ccle/CCLE_RRBS_TSS1kb_20181022.txt.gz</text>
<text text-anchor="start" x="1382.5" y="-265.8" font-family="sans" font-size="10.00"> </text>
<text text-anchor="start" x="1386.5" y="-265.8" font-family="sans" font-weight="bold" font-size="14.00">output →</text>
<text text-anchor="start" x="1456.5" y="-265.8" font-family="sans" font-size="10.00"> </text>
<text text-anchor="start" x="1093.5" y="-246" font-family="monospace" font-size="10.00">rawdata/methylation</text>
<polygon fill="#7cd957" stroke="#7cd957" points="1087.5,-320 1087.5,-320 1467.5,-320 1467.5,-320 1087.5,-320"/>
<polygon fill="#7cd957" stroke="#7cd957" points="1087.5,-280 1087.5,-280 1467.5,-280 1467.5,-280 1087.5,-280"/>
<polygon fill="none" stroke="#7cd957" stroke-width="2" points="1087,-237 1087,-349 1466,-349 1466,-237 1087,-237"/>
</g>
<!-- 3&#45;&gt;0 -->
<g id="edge3" class="edge">
<title>3&#45;&gt;0</title>
<path fill="none" stroke="grey" stroke-width="2" d="M1347.65,-235.76C1369.45,-218.53 1393.97,-199.13 1417.79,-180.31"/>
<polygon fill="grey" stroke="grey" stroke-width="2" points="1420.17,-182.89 1425.84,-173.95 1415.82,-177.4 1420.17,-182.89"/>
</g>
<!-- 4 -->
<g id="node5" class="node">
<title>4</title>
<text text-anchor="start" x="1714" y="-329.6" font-family="sans" font-weight="bold" font-size="18.00">downloadCNV</text>
<text text-anchor="start" x="1492.5" y="-305.8" font-family="sans" font-size="10.00"> </text>
<text text-anchor="start" x="1496.5" y="-305.8" font-family="sans" font-weight="bold" font-size="14.00">↪ input</text>
<text text-anchor="start" x="1554.5" y="-305.8" font-family="sans" font-size="10.00"> </text>
<text text-anchor="start" x="1492.5" y="-286" font-family="monospace" font-size="10.00">data.broadinstitute.org/ccle_legacy_data/dna_copy_number/CCLE_copynumber_byGene_2013&#45;12&#45;03.txt.gz</text>
<text text-anchor="start" x="1997.5" y="-265.8" font-family="sans" font-size="10.00"> </text>
<text text-anchor="start" x="2001.5" y="-265.8" font-family="sans" font-weight="bold" font-size="14.00">output →</text>
<text text-anchor="start" x="2071.5" y="-265.8" font-family="sans" font-size="10.00"> </text>
<text text-anchor="start" x="1492.5" y="-246" font-family="monospace" font-size="10.00">rawdata/cnv</text>
<polygon fill="#d9a157" stroke="#d9a157" points="1486.5,-320 1486.5,-320 2082.5,-320 2082.5,-320 1486.5,-320"/>
<polygon fill="#d9a157" stroke="#d9a157" points="1486.5,-280 1486.5,-280 2082.5,-280 2082.5,-280 1486.5,-280"/>
<polygon fill="none" stroke="#d9a157" stroke-width="2" points="1486,-237 1486,-349 2081,-349 2081,-237 1486,-237"/>
</g>
<!-- 4&#45;&gt;0 -->
<g id="edge2" class="edge">
<title>4&#45;&gt;0</title>
<path fill="none" stroke="grey" stroke-width="2" d="M1712.07,-235.76C1690.06,-218.42 1665.26,-198.9 1641.22,-179.97"/>
<polygon fill="grey" stroke="grey" stroke-width="2" points="1643.12,-177.01 1633.09,-173.57 1638.78,-182.51 1643.12,-177.01"/>
</g>
<!-- 5 -->
<g id="node6" class="node">
<title>5</title>
<text text-anchor="start" x="2296.5" y="-338.6" font-family="sans" font-weight="bold" font-size="18.00">downloadMutation</text>
<text text-anchor="start" x="2107.5" y="-314.8" font-family="sans" font-size="10.00"> </text>
<text text-anchor="start" x="2111.5" y="-314.8" font-family="sans" font-weight="bold" font-size="14.00">↪ input</text>
<text text-anchor="start" x="2169.5" y="-314.8" font-family="sans" font-size="10.00"> </text>
<text text-anchor="start" x="2107.5" y="-295" font-family="monospace" font-size="10.00">data.broadinstitute.org/ccle_legacy_data/oncomap_mutations/CCLE_Oncomap3_2012&#45;04&#45;09.maf</text>
<text text-anchor="start" x="2107.5" y="-277" font-family="monospace" font-size="10.00">data.broadinstitute.org/ccle_legacy_data/oncomap_mutations/CCLE_Oncomap3_Assays_2012&#45;04&#45;09.csv</text>
<text text-anchor="start" x="2594.5" y="-256.8" font-family="sans" font-size="10.00"> </text>
<text text-anchor="start" x="2598.5" y="-256.8" font-family="sans" font-weight="bold" font-size="14.00">output →</text>
<text text-anchor="start" x="2668.5" y="-256.8" font-family="sans" font-size="10.00"> </text>
<text text-anchor="start" x="2107.5" y="-237" font-family="monospace" font-size="10.00">rawdata/mutation</text>
<polygon fill="#d95757" stroke="#d95757" points="2101.5,-329 2101.5,-329 2679.5,-329 2679.5,-329 2101.5,-329"/>
<polygon fill="#d95757" stroke="#d95757" points="2101.5,-271 2101.5,-271 2679.5,-271 2679.5,-271 2101.5,-271"/>
<polygon fill="none" stroke="#d95757" stroke-width="2" points="2101,-228 2101,-358 2678,-358 2678,-228 2101,-228"/>
</g>
<!-- 5&#45;&gt;0 -->
<g id="edge1" class="edge">
<title>5&#45;&gt;0</title>
<path fill="none" stroke="grey" stroke-width="2" d="M2129.14,-226.98C2116.42,-223.92 2103.82,-220.91 2091.5,-218 1936.58,-181.4 1757.01,-141.6 1643.35,-116.73"/>
<polygon fill="grey" stroke="grey" stroke-width="2" points="1643.76,-113.23 1633.24,-114.52 1642.27,-120.07 1643.76,-113.23"/>
</g>
<!-- 6 -->
<g id="node7" class="node">
<title>6</title>
<text text-anchor="start" x="2833" y="-347.6" font-family="sans" font-weight="bold" font-size="18.00">downloadExpression</text>
<text text-anchor="start" x="2704.5" y="-323.8" font-family="sans" font-size="10.00"> </text>
<text text-anchor="start" x="2708.5" y="-323.8" font-family="sans" font-weight="bold" font-size="14.00">↪ input</text>
<text text-anchor="start" x="2766.5" y="-323.8" font-family="sans" font-size="10.00"> </text>
<text text-anchor="start" x="2704.5" y="-304" font-family="monospace" font-size="10.00">data.broadinstitute.org/ccle/CCLE_RNAseq_genes_counts_20180929.gct.gz</text>
<text text-anchor="start" x="2704.5" y="-286" font-family="monospace" font-size="10.00">data.broadinstitute.org/ccle/CCLE_RNAseq_rsem_genes_tpm_20180929.txt.gz</text>
<text text-anchor="start" x="2704.5" y="-268" font-family="monospace" font-size="10.00">data.broadinstitute.org/ccle/CCLE_RNAseq_rsem_transcripts_tpm_20180929.txt.gz</text>
<text text-anchor="start" x="3089.5" y="-247.8" font-family="sans" font-size="10.00"> </text>
<text text-anchor="start" x="3093.5" y="-247.8" font-family="sans" font-weight="bold" font-size="14.00">output →</text>
<text text-anchor="start" x="3163.5" y="-247.8" font-family="sans" font-size="10.00"> </text>
<text text-anchor="start" x="2704.5" y="-228" font-family="monospace" font-size="10.00">rawdata/expression</text>
<polygon fill="#57d9c6" stroke="#57d9c6" points="2698.5,-338 2698.5,-338 3174.5,-338 3174.5,-338 2698.5,-338"/>
<polygon fill="#57d9c6" stroke="#57d9c6" points="2698.5,-262 2698.5,-262 3174.5,-262 3174.5,-262 2698.5,-262"/>
<polygon fill="none" stroke="#57d9c6" stroke-width="2" points="2698,-219 2698,-367 3173,-367 3173,-219 2698,-219"/>
</g>
<!-- 6&#45;&gt;0 -->
<g id="edge5" class="edge">
<title>6&#45;&gt;0</title>
<path fill="none" stroke="grey" stroke-width="2" d="M2696.76,-219.71C2694,-219.13 2691.24,-218.55 2688.5,-218 2310.09,-141.42 1852.12,-109 1643.25,-97.46"/>
<polygon fill="grey" stroke="grey" stroke-width="2" points="1643.36,-93.96 1633.19,-96.91 1642.98,-100.95 1643.36,-93.96"/>
</g>
</g>
</svg>
