<?xml version="1.0" encoding="UTF-8" standalone="no"?>
<!DOCTYPE svg PUBLIC "-//W3C//DTD SVG 1.1//EN"
 "http://www.w3.org/Graphics/SVG/1.1/DTD/svg11.dtd">
<!-- Generated by graphviz version 2.43.0 (0)
 -->
<!-- Title: snakemake_dag Pages: 1 -->
<svg width="1059pt" height="359pt"
 viewBox="0.00 0.00 1058.50 359.00" xmlns="http://www.w3.org/2000/svg" xmlns:xlink="http://www.w3.org/1999/xlink">
<g id="graph0" class="graph" transform="scale(1 1) rotate(0) translate(4 355)">
<title>snakemake_dag</title>
<polygon fill="white" stroke="transparent" points="-4,4 -4,-355 1054.5,-355 1054.5,4 -4,4"/>
<!-- 0 -->
<g id="node1" class="node">
<title>0</title>
<path fill="none" stroke="#56d8d8" stroke-width="2" d="M533.5,-36C533.5,-36 447.5,-36 447.5,-36 441.5,-36 435.5,-30 435.5,-24 435.5,-24 435.5,-12 435.5,-12 435.5,-6 441.5,0 447.5,0 447.5,0 533.5,0 533.5,0 539.5,0 545.5,-6 545.5,-12 545.5,-12 545.5,-24 545.5,-24 545.5,-30 539.5,-36 533.5,-36"/>
<text text-anchor="middle" x="490.5" y="-15.5" font-family="sans" font-size="10.00">build_PharmacoSet</text>
</g>
<!-- 1 -->
<g id="node2" class="node">
<title>1</title>
<path fill="none" stroke="#d6d856" stroke-width="2" d="M95,-108C95,-108 12,-108 12,-108 6,-108 0,-102 0,-96 0,-96 0,-84 0,-84 0,-78 6,-72 12,-72 12,-72 95,-72 95,-72 101,-72 107,-78 107,-84 107,-84 107,-96 107,-96 107,-102 101,-108 95,-108"/>
<text text-anchor="middle" x="53.5" y="-87.5" font-family="sans" font-size="10.00">downloadMutation</text>
</g>
<!-- 1&#45;&gt;0 -->
<g id="edge1" class="edge">
<title>1&#45;&gt;0</title>
<path fill="none" stroke="grey" stroke-width="2" d="M107.01,-74.08C110.21,-73.34 113.39,-72.64 116.5,-72 223.72,-50.02 350.1,-34.17 425.09,-25.8"/>
<polygon fill="grey" stroke="grey" stroke-width="2" points="425.76,-29.25 435.32,-24.67 424.99,-22.29 425.76,-29.25"/>
</g>
<!-- 2 -->
<g id="node3" class="node">
<title>2</title>
<path fill="none" stroke="#56d87b" stroke-width="2" d="M233.5,-108C233.5,-108 137.5,-108 137.5,-108 131.5,-108 125.5,-102 125.5,-96 125.5,-96 125.5,-84 125.5,-84 125.5,-78 131.5,-72 137.5,-72 137.5,-72 233.5,-72 233.5,-72 239.5,-72 245.5,-78 245.5,-84 245.5,-84 245.5,-96 245.5,-96 245.5,-102 239.5,-108 233.5,-108"/>
<text text-anchor="middle" x="185.5" y="-87.5" font-family="sans" font-size="10.00">annotateSampleData</text>
</g>
<!-- 2&#45;&gt;0 -->
<g id="edge2" class="edge">
<title>2&#45;&gt;0</title>
<path fill="none" stroke="grey" stroke-width="2" d="M245.81,-74.29C249.09,-73.51 252.33,-72.74 255.5,-72 312.91,-58.56 378.35,-43.85 425.57,-33.34"/>
<polygon fill="grey" stroke="grey" stroke-width="2" points="426.36,-36.75 435.36,-31.17 424.84,-29.92 426.36,-36.75"/>
</g>
<!-- 3 -->
<g id="node4" class="node">
<title>3</title>
<path fill="none" stroke="#56a2d8" stroke-width="2" d="M290.5,-180C290.5,-180 78.5,-180 78.5,-180 72.5,-180 66.5,-174 66.5,-168 66.5,-168 66.5,-156 66.5,-156 66.5,-150 72.5,-144 78.5,-144 78.5,-144 290.5,-144 290.5,-144 296.5,-144 302.5,-150 302.5,-156 302.5,-156 302.5,-168 302.5,-168 302.5,-174 296.5,-180 290.5,-180"/>
<text text-anchor="middle" x="184.5" y="-159.5" font-family="sans" font-size="10.00">mapSampleNamesToCellosaurusAccessionID</text>
</g>
<!-- 3&#45;&gt;2 -->
<g id="edge8" class="edge">
<title>3&#45;&gt;2</title>
<path fill="none" stroke="grey" stroke-width="2" d="M184.75,-143.7C184.86,-135.98 184.99,-126.71 185.11,-118.11"/>
<polygon fill="grey" stroke="grey" stroke-width="2" points="188.61,-118.15 185.26,-108.1 181.61,-118.05 188.61,-118.15"/>
</g>
<!-- 4 -->
<g id="node5" class="node">
<title>4</title>
<path fill="none" stroke="#56d88a" stroke-width="2" d="M332.5,-265.5C332.5,-265.5 240.5,-265.5 240.5,-265.5 234.5,-265.5 228.5,-259.5 228.5,-253.5 228.5,-253.5 228.5,-241.5 228.5,-241.5 228.5,-235.5 234.5,-229.5 240.5,-229.5 240.5,-229.5 332.5,-229.5 332.5,-229.5 338.5,-229.5 344.5,-235.5 344.5,-241.5 344.5,-241.5 344.5,-253.5 344.5,-253.5 344.5,-259.5 338.5,-265.5 332.5,-265.5"/>
<text text-anchor="middle" x="286.5" y="-245" font-family="sans" font-size="10.00">preprocessMetadata</text>
</g>
<!-- 4&#45;&gt;3 -->
<g id="edge9" class="edge">
<title>4&#45;&gt;3</title>
<path fill="none" stroke="grey" stroke-width="2" d="M265.37,-229.2C250.32,-216.88 229.92,-200.19 213.38,-186.64"/>
<polygon fill="grey" stroke="grey" stroke-width="2" points="215.56,-183.91 205.61,-180.28 211.13,-189.32 215.56,-183.91"/>
</g>
<!-- 7 -->
<g id="node8" class="node">
<title>7</title>
<path fill="none" stroke="#568ad8" stroke-width="2" d="M385,-108C385,-108 276,-108 276,-108 270,-108 264,-102 264,-96 264,-96 264,-84 264,-84 264,-78 270,-72 276,-72 276,-72 385,-72 385,-72 391,-72 397,-78 397,-84 397,-84 397,-96 397,-96 397,-102 391,-108 385,-108"/>
<text text-anchor="middle" x="330.5" y="-87.5" font-family="sans" font-size="10.00">annotateTreatmentData</text>
</g>
<!-- 4&#45;&gt;7 -->
<g id="edge12" class="edge">
<title>4&#45;&gt;7</title>
<path fill="none" stroke="grey" stroke-width="2" d="M293.8,-229.24C299.22,-215.96 306.51,-197.04 311.5,-180 317.49,-159.56 322.44,-135.97 325.78,-118.22"/>
<polygon fill="grey" stroke="grey" stroke-width="2" points="329.25,-118.72 327.61,-108.25 322.36,-117.46 329.25,-118.72"/>
</g>
<!-- 5 -->
<g id="node6" class="node">
<title>5</title>
<path fill="none" stroke="#59d856" stroke-width="2" d="M262.5,-351C262.5,-351 132.5,-351 132.5,-351 126.5,-351 120.5,-345 120.5,-339 120.5,-339 120.5,-327 120.5,-327 120.5,-321 126.5,-315 132.5,-315 132.5,-315 262.5,-315 262.5,-315 268.5,-315 274.5,-321 274.5,-327 274.5,-327 274.5,-339 274.5,-339 274.5,-345 268.5,-351 262.5,-351"/>
<text text-anchor="middle" x="197.5" y="-330.5" font-family="sans" font-size="10.00">downloadSampleAnnotation</text>
</g>
<!-- 5&#45;&gt;4 -->
<g id="edge10" class="edge">
<title>5&#45;&gt;4</title>
<path fill="none" stroke="grey" stroke-width="2" d="M215.94,-314.7C228.83,-302.61 246.22,-286.29 260.51,-272.88"/>
<polygon fill="grey" stroke="grey" stroke-width="2" points="263.18,-275.17 268.08,-265.78 258.4,-270.07 263.18,-275.17"/>
</g>
<!-- 6 -->
<g id="node7" class="node">
<title>6</title>
<path fill="none" stroke="#56c9d8" stroke-width="2" d="M448,-351C448,-351 305,-351 305,-351 299,-351 293,-345 293,-339 293,-339 293,-327 293,-327 293,-321 299,-315 305,-315 305,-315 448,-315 448,-315 454,-315 460,-321 460,-327 460,-327 460,-339 460,-339 460,-345 454,-351 448,-351"/>
<text text-anchor="middle" x="376.5" y="-330.5" font-family="sans" font-size="10.00">downloadTreatmentAnnotation</text>
</g>
<!-- 6&#45;&gt;4 -->
<g id="edge11" class="edge">
<title>6&#45;&gt;4</title>
<path fill="none" stroke="grey" stroke-width="2" d="M357.85,-314.7C344.82,-302.61 327.23,-286.29 312.78,-272.88"/>
<polygon fill="grey" stroke="grey" stroke-width="2" points="314.84,-270.01 305.12,-265.78 310.07,-275.15 314.84,-270.01"/>
</g>
<!-- 7&#45;&gt;0 -->
<g id="edge3" class="edge">
<title>7&#45;&gt;0</title>
<path fill="none" stroke="grey" stroke-width="2" d="M369.64,-71.88C391.51,-62.31 418.96,-50.3 442.16,-40.15"/>
<polygon fill="grey" stroke="grey" stroke-width="2" points="443.73,-43.28 451.49,-36.07 440.92,-36.87 443.73,-43.28"/>
</g>
<!-- 8 -->
<g id="node9" class="node">
<title>8</title>
<path fill="none" stroke="#56d8c9" stroke-width="2" d="M553.5,-108C553.5,-108 427.5,-108 427.5,-108 421.5,-108 415.5,-102 415.5,-96 415.5,-96 415.5,-84 415.5,-84 415.5,-78 421.5,-72 427.5,-72 427.5,-72 553.5,-72 553.5,-72 559.5,-72 565.5,-78 565.5,-84 565.5,-84 565.5,-96 565.5,-96 565.5,-102 559.5,-108 553.5,-108"/>
<text text-anchor="middle" x="490.5" y="-87.5" font-family="sans" font-size="10.00">make_ExpressionGenes_SE</text>
</g>
<!-- 8&#45;&gt;0 -->
<g id="edge4" class="edge">
<title>8&#45;&gt;0</title>
<path fill="none" stroke="grey" stroke-width="2" d="M490.5,-71.7C490.5,-63.98 490.5,-54.71 490.5,-46.11"/>
<polygon fill="grey" stroke="grey" stroke-width="2" points="494,-46.1 490.5,-36.1 487,-46.1 494,-46.1"/>
</g>
<!-- 9 -->
<g id="node10" class="node">
<title>9</title>
<path fill="none" stroke="#d88d56" stroke-width="2" d="M536.5,-180C536.5,-180 406.5,-180 406.5,-180 400.5,-180 394.5,-174 394.5,-168 394.5,-168 394.5,-156 394.5,-156 394.5,-150 400.5,-144 406.5,-144 406.5,-144 536.5,-144 536.5,-144 542.5,-144 548.5,-150 548.5,-156 548.5,-156 548.5,-168 548.5,-168 548.5,-174 542.5,-180 536.5,-180"/>
<text text-anchor="middle" x="471.5" y="-159.5" font-family="sans" font-size="10.00">preprocessExpressionGenes</text>
</g>
<!-- 9&#45;&gt;8 -->
<g id="edge13" class="edge">
<title>9&#45;&gt;8</title>
<path fill="none" stroke="grey" stroke-width="2" d="M476.2,-143.7C478.31,-135.9 480.86,-126.51 483.22,-117.83"/>
<polygon fill="grey" stroke="grey" stroke-width="2" points="486.62,-118.67 485.86,-108.1 479.86,-116.84 486.62,-118.67"/>
</g>
<!-- 10 -->
<g id="node11" class="node">
<title>10</title>
<path fill="none" stroke="#78d856" stroke-width="2" d="M537,-265.5C537,-265.5 444,-265.5 444,-265.5 438,-265.5 432,-259.5 432,-253.5 432,-253.5 432,-241.5 432,-241.5 432,-235.5 438,-229.5 444,-229.5 444,-229.5 537,-229.5 537,-229.5 543,-229.5 549,-235.5 549,-241.5 549,-241.5 549,-253.5 549,-253.5 549,-259.5 543,-265.5 537,-265.5"/>
<text text-anchor="middle" x="490.5" y="-245" font-family="sans" font-size="10.00">downloadExpression</text>
</g>
<!-- 10&#45;&gt;9 -->
<g id="edge14" class="edge">
<title>10&#45;&gt;9</title>
<path fill="none" stroke="grey" stroke-width="2" d="M486.56,-229.2C484.02,-218 480.64,-203.19 477.74,-190.41"/>
<polygon fill="grey" stroke="grey" stroke-width="2" points="481.06,-189.25 475.43,-180.28 474.24,-190.81 481.06,-189.25"/>
</g>
<!-- 13 -->
<g id="node14" class="node">
<title>13</title>
<path fill="none" stroke="#d87d56" stroke-width="2" d="M730.5,-180C730.5,-180 578.5,-180 578.5,-180 572.5,-180 566.5,-174 566.5,-168 566.5,-168 566.5,-156 566.5,-156 566.5,-150 572.5,-144 578.5,-144 578.5,-144 730.5,-144 730.5,-144 736.5,-144 742.5,-150 742.5,-156 742.5,-156 742.5,-168 742.5,-168 742.5,-174 736.5,-180 730.5,-180"/>
<text text-anchor="middle" x="654.5" y="-159.5" font-family="sans" font-size="10.00">preprocessExpressionTranscripts</text>
</g>
<!-- 10&#45;&gt;13 -->
<g id="edge17" class="edge">
<title>10&#45;&gt;13</title>
<path fill="none" stroke="grey" stroke-width="2" d="M524.08,-229.4C549.51,-216.46 584.61,-198.58 612,-184.64"/>
<polygon fill="grey" stroke="grey" stroke-width="2" points="613.64,-187.73 620.96,-180.08 610.46,-181.49 613.64,-187.73"/>
</g>
<!-- 11 -->
<g id="node12" class="node">
<title>11</title>
<path fill="none" stroke="#d8a456" stroke-width="2" d="M709.5,-279C709.5,-279 599.5,-279 599.5,-279 593.5,-279 587.5,-273 587.5,-267 587.5,-267 587.5,-228 587.5,-228 587.5,-222 593.5,-216 599.5,-216 599.5,-216 709.5,-216 709.5,-216 715.5,-216 721.5,-222 721.5,-228 721.5,-228 721.5,-267 721.5,-267 721.5,-273 715.5,-279 709.5,-279"/>
<text text-anchor="middle" x="654.5" y="-267" font-family="sans" font-size="10.00">getGENCODEannotation</text>
<text text-anchor="middle" x="654.5" y="-256" font-family="sans" font-size="10.00">gencode_release: 19</text>
<text text-anchor="middle" x="654.5" y="-245" font-family="sans" font-size="10.00">refDir: metadata</text>
<text text-anchor="middle" x="654.5" y="-234" font-family="sans" font-size="10.00">ref_build: GRCh37</text>
<text text-anchor="middle" x="654.5" y="-223" font-family="sans" font-size="10.00">species: human</text>
</g>
<!-- 11&#45;&gt;9 -->
<g id="edge15" class="edge">
<title>11&#45;&gt;9</title>
<path fill="none" stroke="grey" stroke-width="2" d="M587.4,-215.88C564.4,-205.39 539.18,-193.88 518.16,-184.29"/>
<polygon fill="grey" stroke="grey" stroke-width="2" points="519.37,-180.99 508.82,-180.03 516.46,-187.36 519.37,-180.99"/>
</g>
<!-- 11&#45;&gt;13 -->
<g id="edge18" class="edge">
<title>11&#45;&gt;13</title>
<path fill="none" stroke="grey" stroke-width="2" d="M654.5,-215.88C654.5,-207.47 654.5,-198.4 654.5,-190.19"/>
<polygon fill="grey" stroke="grey" stroke-width="2" points="658,-190.03 654.5,-180.03 651,-190.03 658,-190.03"/>
</g>
<!-- 14 -->
<g id="node15" class="node">
<title>14</title>
<path fill="none" stroke="#8fd856" stroke-width="2" d="M836,-180C836,-180 773,-180 773,-180 767,-180 761,-174 761,-168 761,-168 761,-156 761,-156 761,-150 767,-144 773,-144 773,-144 836,-144 836,-144 842,-144 848,-150 848,-156 848,-156 848,-168 848,-168 848,-174 842,-180 836,-180"/>
<text text-anchor="middle" x="804.5" y="-159.5" font-family="sans" font-size="10.00">make_CNV_SE</text>
</g>
<!-- 11&#45;&gt;14 -->
<g id="edge20" class="edge">
<title>11&#45;&gt;14</title>
<path fill="none" stroke="grey" stroke-width="2" d="M709.5,-215.88C727.85,-205.67 747.91,-194.5 764.85,-185.07"/>
<polygon fill="grey" stroke="grey" stroke-width="2" points="766.88,-187.95 773.91,-180.03 763.47,-181.83 766.88,-187.95"/>
</g>
<!-- 12 -->
<g id="node13" class="node">
<title>12</title>
<path fill="none" stroke="#c6d856" stroke-width="2" d="M743.5,-108C743.5,-108 595.5,-108 595.5,-108 589.5,-108 583.5,-102 583.5,-96 583.5,-96 583.5,-84 583.5,-84 583.5,-78 589.5,-72 595.5,-72 595.5,-72 743.5,-72 743.5,-72 749.5,-72 755.5,-78 755.5,-84 755.5,-84 755.5,-96 755.5,-96 755.5,-102 749.5,-108 743.5,-108"/>
<text text-anchor="middle" x="669.5" y="-87.5" font-family="sans" font-size="10.00">make_ExpressionTranscripts_SE</text>
</g>
<!-- 12&#45;&gt;0 -->
<g id="edge5" class="edge">
<title>12&#45;&gt;0</title>
<path fill="none" stroke="grey" stroke-width="2" d="M625.71,-71.88C600.92,-62.18 569.72,-49.98 543.54,-39.74"/>
<polygon fill="grey" stroke="grey" stroke-width="2" points="544.73,-36.45 534.15,-36.07 542.18,-42.97 544.73,-36.45"/>
</g>
<!-- 13&#45;&gt;12 -->
<g id="edge16" class="edge">
<title>13&#45;&gt;12</title>
<path fill="none" stroke="grey" stroke-width="2" d="M658.21,-143.7C659.86,-135.98 661.85,-126.71 663.69,-118.11"/>
<polygon fill="grey" stroke="grey" stroke-width="2" points="667.16,-118.62 665.83,-108.1 660.32,-117.15 667.16,-118.62"/>
</g>
<!-- 14&#45;&gt;0 -->
<g id="edge6" class="edge">
<title>14&#45;&gt;0</title>
<path fill="none" stroke="grey" stroke-width="2" d="M801.63,-143.67C797.31,-123.26 787.08,-89.88 764.5,-72 732.87,-46.95 626.41,-32.06 555.88,-24.72"/>
<polygon fill="grey" stroke="grey" stroke-width="2" points="556.05,-21.21 545.75,-23.69 555.35,-28.18 556.05,-21.21"/>
</g>
<!-- 15 -->
<g id="node16" class="node">
<title>15</title>
<path fill="none" stroke="#d85656" stroke-width="2" d="M835,-265.5C835,-265.5 774,-265.5 774,-265.5 768,-265.5 762,-259.5 762,-253.5 762,-253.5 762,-241.5 762,-241.5 762,-235.5 768,-229.5 774,-229.5 774,-229.5 835,-229.5 835,-229.5 841,-229.5 847,-235.5 847,-241.5 847,-241.5 847,-253.5 847,-253.5 847,-259.5 841,-265.5 835,-265.5"/>
<text text-anchor="middle" x="804.5" y="-245" font-family="sans" font-size="10.00">downloadCNV</text>
</g>
<!-- 15&#45;&gt;14 -->
<g id="edge19" class="edge">
<title>15&#45;&gt;14</title>
<path fill="none" stroke="grey" stroke-width="2" d="M804.5,-229.2C804.5,-218 804.5,-203.19 804.5,-190.41"/>
<polygon fill="grey" stroke="grey" stroke-width="2" points="808,-190.28 804.5,-180.28 801,-190.28 808,-190.28"/>
</g>
<!-- 16 -->
<g id="node17" class="node">
<title>16</title>
<path fill="none" stroke="#56d8a2" stroke-width="2" d="M1033.5,-108C1033.5,-108 857.5,-108 857.5,-108 851.5,-108 845.5,-102 845.5,-96 845.5,-96 845.5,-84 845.5,-84 845.5,-78 851.5,-72 857.5,-72 857.5,-72 1033.5,-72 1033.5,-72 1039.5,-72 1045.5,-78 1045.5,-84 1045.5,-84 1045.5,-96 1045.5,-96 1045.5,-102 1039.5,-108 1033.5,-108"/>
<text text-anchor="middle" x="945.5" y="-87.5" font-family="sans" font-size="10.00">createTreatmentResponseExperiment</text>
</g>
<!-- 16&#45;&gt;0 -->
<g id="edge7" class="edge">
<title>16&#45;&gt;0</title>
<path fill="none" stroke="grey" stroke-width="2" d="M845.37,-73.59C757.28,-60.04 631.6,-40.71 555.85,-29.05"/>
<polygon fill="grey" stroke="grey" stroke-width="2" points="555.92,-25.52 545.51,-27.46 554.86,-32.44 555.92,-25.52"/>
</g>
<!-- 17 -->
<g id="node18" class="node">
<title>17</title>
<path fill="none" stroke="#d8c356" stroke-width="2" d="M1038.5,-180C1038.5,-180 878.5,-180 878.5,-180 872.5,-180 866.5,-174 866.5,-168 866.5,-168 866.5,-156 866.5,-156 866.5,-150 872.5,-144 878.5,-144 878.5,-144 1038.5,-144 1038.5,-144 1044.5,-144 1050.5,-150 1050.5,-156 1050.5,-156 1050.5,-168 1050.5,-168 1050.5,-174 1044.5,-180 1038.5,-180"/>
<text text-anchor="middle" x="958.5" y="-159.5" font-family="sans" font-size="10.00">downloadTreatmentResponseData</text>
</g>
<!-- 17&#45;&gt;16 -->
<g id="edge21" class="edge">
<title>17&#45;&gt;16</title>
<path fill="none" stroke="grey" stroke-width="2" d="M955.29,-143.7C953.85,-135.98 952.13,-126.71 950.54,-118.11"/>
<polygon fill="grey" stroke="grey" stroke-width="2" points="953.94,-117.3 948.68,-108.1 947.06,-118.58 953.94,-117.3"/>
</g>
</g>
</svg>
