<?xml version="1.0" encoding="UTF-8" standalone="no"?>
<!DOCTYPE svg PUBLIC "-//W3C//DTD SVG 1.1//EN"
 "http://www.w3.org/Graphics/SVG/1.1/DTD/svg11.dtd">
<!-- Generated by graphviz version 2.43.0 (0)
 -->
<!-- Title: snakemake_dag Pages: 1 -->
<svg width="841pt" height="359pt"
 viewBox="0.00 0.00 841.00 359.00" xmlns="http://www.w3.org/2000/svg" xmlns:xlink="http://www.w3.org/1999/xlink">
<g id="graph0" class="graph" transform="scale(1 1) rotate(0) translate(4 355)">
<title>snakemake_dag</title>
<polygon fill="white" stroke="transparent" points="-4,4 -4,-355 837,-355 837,4 -4,4"/>
<!-- 0 -->
<g id="node1" class="node">
<title>0</title>
<path fill="none" stroke="#d87d56" stroke-width="2" d="M556,-36C556,-36 470,-36 470,-36 464,-36 458,-30 458,-24 458,-24 458,-12 458,-12 458,-6 464,0 470,0 470,0 556,0 556,0 562,0 568,-6 568,-12 568,-12 568,-24 568,-24 568,-30 562,-36 556,-36"/>
<text text-anchor="middle" x="513" y="-15.5" font-family="sans" font-size="10.00">build_PharmacoSet</text>
</g>
<!-- 1 -->
<g id="node2" class="node">
<title>1</title>
<path fill="none" stroke="#d8a456" stroke-width="2" d="M157,-108C157,-108 31,-108 31,-108 25,-108 19,-102 19,-96 19,-96 19,-84 19,-84 19,-78 25,-72 31,-72 31,-72 157,-72 157,-72 163,-72 169,-78 169,-84 169,-84 169,-96 169,-96 169,-102 163,-108 157,-108"/>
<text text-anchor="middle" x="94" y="-87.5" font-family="sans" font-size="10.00">make_ExpressionGenes_SE</text>
</g>
<!-- 1&#45;&gt;0 -->
<g id="edge1" class="edge">
<title>1&#45;&gt;0</title>
<path fill="none" stroke="grey" stroke-width="2" d="M169.01,-74C172.73,-73.31 176.4,-72.64 180,-72 272.78,-55.45 380.55,-38.76 447.78,-28.64"/>
<polygon fill="grey" stroke="grey" stroke-width="2" points="448.43,-32.09 457.8,-27.14 447.39,-25.16 448.43,-32.09"/>
</g>
<!-- 2 -->
<g id="node3" class="node">
<title>2</title>
<path fill="none" stroke="#d8bc56" stroke-width="2" d="M142,-180C142,-180 12,-180 12,-180 6,-180 0,-174 0,-168 0,-168 0,-156 0,-156 0,-150 6,-144 12,-144 12,-144 142,-144 142,-144 148,-144 154,-150 154,-156 154,-156 154,-168 154,-168 154,-174 148,-180 142,-180"/>
<text text-anchor="middle" x="77" y="-159.5" font-family="sans" font-size="10.00">preprocessExpressionGenes</text>
</g>
<!-- 2&#45;&gt;1 -->
<g id="edge7" class="edge">
<title>2&#45;&gt;1</title>
<path fill="none" stroke="grey" stroke-width="2" d="M81.2,-143.7C83.1,-135.9 85.38,-126.51 87.48,-117.83"/>
<polygon fill="grey" stroke="grey" stroke-width="2" points="90.89,-118.65 89.85,-108.1 84.08,-117 90.89,-118.65"/>
</g>
<!-- 3 -->
<g id="node4" class="node">
<title>3</title>
<path fill="none" stroke="#56a9d8" stroke-width="2" d="M287.5,-265.5C287.5,-265.5 194.5,-265.5 194.5,-265.5 188.5,-265.5 182.5,-259.5 182.5,-253.5 182.5,-253.5 182.5,-241.5 182.5,-241.5 182.5,-235.5 188.5,-229.5 194.5,-229.5 194.5,-229.5 287.5,-229.5 287.5,-229.5 293.5,-229.5 299.5,-235.5 299.5,-241.5 299.5,-241.5 299.5,-253.5 299.5,-253.5 299.5,-259.5 293.5,-265.5 287.5,-265.5"/>
<text text-anchor="middle" x="241" y="-245" font-family="sans" font-size="10.00">downloadExpression</text>
</g>
<!-- 3&#45;&gt;2 -->
<g id="edge8" class="edge">
<title>3&#45;&gt;2</title>
<path fill="none" stroke="grey" stroke-width="2" d="M207.42,-229.4C181.99,-216.46 146.89,-198.58 119.5,-184.64"/>
<polygon fill="grey" stroke="grey" stroke-width="2" points="121.04,-181.49 110.54,-180.08 117.86,-187.73 121.04,-181.49"/>
</g>
<!-- 6 -->
<g id="node7" class="node">
<title>6</title>
<path fill="none" stroke="#ced856" stroke-width="2" d="M336,-180C336,-180 184,-180 184,-180 178,-180 172,-174 172,-168 172,-168 172,-156 172,-156 172,-150 178,-144 184,-144 184,-144 336,-144 336,-144 342,-144 348,-150 348,-156 348,-156 348,-168 348,-168 348,-174 342,-180 336,-180"/>
<text text-anchor="middle" x="260" y="-159.5" font-family="sans" font-size="10.00">preprocessExpressionTranscripts</text>
</g>
<!-- 3&#45;&gt;6 -->
<g id="edge11" class="edge">
<title>3&#45;&gt;6</title>
<path fill="none" stroke="grey" stroke-width="2" d="M244.94,-229.2C247.48,-218 250.86,-203.19 253.76,-190.41"/>
<polygon fill="grey" stroke="grey" stroke-width="2" points="257.26,-190.81 256.07,-180.28 250.44,-189.25 257.26,-190.81"/>
</g>
<!-- 4 -->
<g id="node5" class="node">
<title>4</title>
<path fill="none" stroke="#56b9d8" stroke-width="2" d="M142,-279C142,-279 32,-279 32,-279 26,-279 20,-273 20,-267 20,-267 20,-228 20,-228 20,-222 26,-216 32,-216 32,-216 142,-216 142,-216 148,-216 154,-222 154,-228 154,-228 154,-267 154,-267 154,-273 148,-279 142,-279"/>
<text text-anchor="middle" x="87" y="-267" font-family="sans" font-size="10.00">getGENCODEannotation</text>
<text text-anchor="middle" x="87" y="-256" font-family="sans" font-size="10.00">gencode_release: 19</text>
<text text-anchor="middle" x="87" y="-245" font-family="sans" font-size="10.00">refDir: metadata</text>
<text text-anchor="middle" x="87" y="-234" font-family="sans" font-size="10.00">ref_build: GRCh37</text>
<text text-anchor="middle" x="87" y="-223" font-family="sans" font-size="10.00">species: human</text>
</g>
<!-- 4&#45;&gt;2 -->
<g id="edge9" class="edge">
<title>4&#45;&gt;2</title>
<path fill="none" stroke="grey" stroke-width="2" d="M83.33,-215.88C82.33,-207.47 81.24,-198.4 80.26,-190.19"/>
<polygon fill="grey" stroke="grey" stroke-width="2" points="83.7,-189.54 79.04,-180.03 76.75,-190.37 83.7,-189.54"/>
</g>
<!-- 4&#45;&gt;6 -->
<g id="edge12" class="edge">
<title>4&#45;&gt;6</title>
<path fill="none" stroke="grey" stroke-width="2" d="M150.44,-215.88C172.08,-205.43 195.8,-193.98 215.62,-184.42"/>
<polygon fill="grey" stroke="grey" stroke-width="2" points="217.24,-187.53 224.72,-180.03 214.2,-181.22 217.24,-187.53"/>
</g>
<!-- 5 -->
<g id="node6" class="node">
<title>5</title>
<path fill="none" stroke="#566bd8" stroke-width="2" d="M349,-108C349,-108 201,-108 201,-108 195,-108 189,-102 189,-96 189,-96 189,-84 189,-84 189,-78 195,-72 201,-72 201,-72 349,-72 349,-72 355,-72 361,-78 361,-84 361,-84 361,-96 361,-96 361,-102 355,-108 349,-108"/>
<text text-anchor="middle" x="275" y="-87.5" font-family="sans" font-size="10.00">make_ExpressionTranscripts_SE</text>
</g>
<!-- 5&#45;&gt;0 -->
<g id="edge2" class="edge">
<title>5&#45;&gt;0</title>
<path fill="none" stroke="grey" stroke-width="2" d="M332.92,-71.97C367.63,-61.76 411.86,-48.75 447.79,-38.18"/>
<polygon fill="grey" stroke="grey" stroke-width="2" points="449.09,-41.45 457.69,-35.27 447.11,-34.73 449.09,-41.45"/>
</g>
<!-- 6&#45;&gt;5 -->
<g id="edge10" class="edge">
<title>6&#45;&gt;5</title>
<path fill="none" stroke="grey" stroke-width="2" d="M263.71,-143.7C265.36,-135.98 267.35,-126.71 269.19,-118.11"/>
<polygon fill="grey" stroke="grey" stroke-width="2" points="272.66,-118.62 271.33,-108.1 265.82,-117.15 272.66,-118.62"/>
</g>
<!-- 7 -->
<g id="node8" class="node">
<title>7</title>
<path fill="none" stroke="#a7d856" stroke-width="2" d="M517,-108C517,-108 421,-108 421,-108 415,-108 409,-102 409,-96 409,-96 409,-84 409,-84 409,-78 415,-72 421,-72 421,-72 517,-72 517,-72 523,-72 529,-78 529,-84 529,-84 529,-96 529,-96 529,-102 523,-108 517,-108"/>
<text text-anchor="middle" x="469" y="-87.5" font-family="sans" font-size="10.00">annotateSampleData</text>
</g>
<!-- 7&#45;&gt;0 -->
<g id="edge3" class="edge">
<title>7&#45;&gt;0</title>
<path fill="none" stroke="grey" stroke-width="2" d="M479.88,-71.7C484.99,-63.56 491.2,-53.69 496.84,-44.7"/>
<polygon fill="grey" stroke="grey" stroke-width="2" points="499.89,-46.43 502.25,-36.1 493.96,-42.71 499.89,-46.43"/>
</g>
<!-- 8 -->
<g id="node9" class="node">
<title>8</title>
<path fill="none" stroke="#d86e56" stroke-width="2" d="M590,-180C590,-180 378,-180 378,-180 372,-180 366,-174 366,-168 366,-168 366,-156 366,-156 366,-150 372,-144 378,-144 378,-144 590,-144 590,-144 596,-144 602,-150 602,-156 602,-156 602,-168 602,-168 602,-174 596,-180 590,-180"/>
<text text-anchor="middle" x="484" y="-159.5" font-family="sans" font-size="10.00">mapSampleNamesToCellosaurusAccessionID</text>
</g>
<!-- 8&#45;&gt;7 -->
<g id="edge13" class="edge">
<title>8&#45;&gt;7</title>
<path fill="none" stroke="grey" stroke-width="2" d="M480.29,-143.7C478.64,-135.98 476.65,-126.71 474.81,-118.11"/>
<polygon fill="grey" stroke="grey" stroke-width="2" points="478.18,-117.15 472.67,-108.1 471.34,-118.62 478.18,-117.15"/>
</g>
<!-- 9 -->
<g id="node10" class="node">
<title>9</title>
<path fill="none" stroke="#567bd8" stroke-width="2" d="M631,-265.5C631,-265.5 539,-265.5 539,-265.5 533,-265.5 527,-259.5 527,-253.5 527,-253.5 527,-241.5 527,-241.5 527,-235.5 533,-229.5 539,-229.5 539,-229.5 631,-229.5 631,-229.5 637,-229.5 643,-235.5 643,-241.5 643,-241.5 643,-253.5 643,-253.5 643,-259.5 637,-265.5 631,-265.5"/>
<text text-anchor="middle" x="585" y="-245" font-family="sans" font-size="10.00">preprocessMetadata</text>
</g>
<!-- 9&#45;&gt;8 -->
<g id="edge14" class="edge">
<title>9&#45;&gt;8</title>
<path fill="none" stroke="grey" stroke-width="2" d="M564.07,-229.2C549.31,-217 529.35,-200.49 513.04,-187.01"/>
<polygon fill="grey" stroke="grey" stroke-width="2" points="514.84,-183.95 504.9,-180.28 510.38,-189.35 514.84,-183.95"/>
</g>
<!-- 12 -->
<g id="node13" class="node">
<title>12</title>
<path fill="none" stroke="#b6d856" stroke-width="2" d="M741.5,-180C741.5,-180 632.5,-180 632.5,-180 626.5,-180 620.5,-174 620.5,-168 620.5,-168 620.5,-156 620.5,-156 620.5,-150 626.5,-144 632.5,-144 632.5,-144 741.5,-144 741.5,-144 747.5,-144 753.5,-150 753.5,-156 753.5,-156 753.5,-168 753.5,-168 753.5,-174 747.5,-180 741.5,-180"/>
<text text-anchor="middle" x="687" y="-159.5" font-family="sans" font-size="10.00">annotateTreatmentData</text>
</g>
<!-- 9&#45;&gt;12 -->
<g id="edge17" class="edge">
<title>9&#45;&gt;12</title>
<path fill="none" stroke="grey" stroke-width="2" d="M606.13,-229.2C621.18,-216.88 641.58,-200.19 658.12,-186.64"/>
<polygon fill="grey" stroke="grey" stroke-width="2" points="660.37,-189.32 665.89,-180.28 655.94,-183.91 660.37,-189.32"/>
</g>
<!-- 10 -->
<g id="node11" class="node">
<title>10</title>
<path fill="none" stroke="#56d8d0" stroke-width="2" d="M561,-351C561,-351 431,-351 431,-351 425,-351 419,-345 419,-339 419,-339 419,-327 419,-327 419,-321 425,-315 431,-315 431,-315 561,-315 561,-315 567,-315 573,-321 573,-327 573,-327 573,-339 573,-339 573,-345 567,-351 561,-351"/>
<text text-anchor="middle" x="496" y="-330.5" font-family="sans" font-size="10.00">downloadSampleAnnotation</text>
</g>
<!-- 10&#45;&gt;9 -->
<g id="edge15" class="edge">
<title>10&#45;&gt;9</title>
<path fill="none" stroke="grey" stroke-width="2" d="M514.44,-314.7C527.33,-302.61 544.72,-286.29 559.01,-272.88"/>
<polygon fill="grey" stroke="grey" stroke-width="2" points="561.68,-275.17 566.58,-265.78 556.9,-270.07 561.68,-275.17"/>
</g>
<!-- 11 -->
<g id="node12" class="node">
<title>11</title>
<path fill="none" stroke="#56d0d8" stroke-width="2" d="M746.5,-351C746.5,-351 603.5,-351 603.5,-351 597.5,-351 591.5,-345 591.5,-339 591.5,-339 591.5,-327 591.5,-327 591.5,-321 597.5,-315 603.5,-315 603.5,-315 746.5,-315 746.5,-315 752.5,-315 758.5,-321 758.5,-327 758.5,-327 758.5,-339 758.5,-339 758.5,-345 752.5,-351 746.5,-351"/>
<text text-anchor="middle" x="675" y="-330.5" font-family="sans" font-size="10.00">downloadTreatmentAnnotation</text>
</g>
<!-- 11&#45;&gt;9 -->
<g id="edge16" class="edge">
<title>11&#45;&gt;9</title>
<path fill="none" stroke="grey" stroke-width="2" d="M656.35,-314.7C643.32,-302.61 625.73,-286.29 611.28,-272.88"/>
<polygon fill="grey" stroke="grey" stroke-width="2" points="613.34,-270.01 603.62,-265.78 608.57,-275.15 613.34,-270.01"/>
</g>
<!-- 12&#45;&gt;0 -->
<g id="edge4" class="edge">
<title>12&#45;&gt;0</title>
<path fill="none" stroke="grey" stroke-width="2" d="M637.96,-143.95C617.4,-135.27 594.13,-123.27 576,-108 555.1,-90.39 537.73,-64.34 526.57,-44.96"/>
<polygon fill="grey" stroke="grey" stroke-width="2" points="529.52,-43.08 521.59,-36.06 523.41,-46.49 529.52,-43.08"/>
</g>
<!-- 13 -->
<g id="node14" class="node">
<title>13</title>
<path fill="none" stroke="#68d856" stroke-width="2" d="M680.5,-108C680.5,-108 597.5,-108 597.5,-108 591.5,-108 585.5,-102 585.5,-96 585.5,-96 585.5,-84 585.5,-84 585.5,-78 591.5,-72 597.5,-72 597.5,-72 680.5,-72 680.5,-72 686.5,-72 692.5,-78 692.5,-84 692.5,-84 692.5,-96 692.5,-96 692.5,-102 686.5,-108 680.5,-108"/>
<text text-anchor="middle" x="639" y="-87.5" font-family="sans" font-size="10.00">downloadMutation</text>
</g>
<!-- 13&#45;&gt;0 -->
<g id="edge5" class="edge">
<title>13&#45;&gt;0</title>
<path fill="none" stroke="grey" stroke-width="2" d="M608.18,-71.88C591.55,-62.64 570.84,-51.13 552.98,-41.21"/>
<polygon fill="grey" stroke="grey" stroke-width="2" points="554.38,-37.99 543.94,-36.19 550.98,-44.11 554.38,-37.99"/>
</g>
<!-- 14 -->
<g id="node15" class="node">
<title>14</title>
<path fill="none" stroke="#56d8a9" stroke-width="2" d="M821,-108C821,-108 723,-108 723,-108 717,-108 711,-102 711,-96 711,-96 711,-84 711,-84 711,-78 717,-72 723,-72 723,-72 821,-72 821,-72 827,-72 833,-78 833,-84 833,-84 833,-96 833,-96 833,-102 827,-108 821,-108"/>
<text text-anchor="middle" x="772" y="-87.5" font-family="sans" font-size="10.00">downloadMethylation</text>
</g>
<!-- 14&#45;&gt;0 -->
<g id="edge6" class="edge">
<title>14&#45;&gt;0</title>
<path fill="none" stroke="grey" stroke-width="2" d="M710.95,-72.5C671.02,-61.71 618.91,-47.62 578.18,-36.61"/>
<polygon fill="grey" stroke="grey" stroke-width="2" points="578.91,-33.19 568.35,-33.96 577.09,-39.95 578.91,-33.19"/>
</g>
</g>
</svg>
