<?xml version="1.0" encoding="UTF-8" standalone="no"?>
<!DOCTYPE svg PUBLIC "-//W3C//DTD SVG 1.1//EN"
 "http://www.w3.org/Graphics/SVG/1.1/DTD/svg11.dtd">
<!-- Generated by graphviz version 2.43.0 (0)
 -->
<!-- Title: snakemake_dag Pages: 1 -->
<svg width="1073pt" height="359pt"
 viewBox="0.00 0.00 1073.00 359.00" xmlns="http://www.w3.org/2000/svg" xmlns:xlink="http://www.w3.org/1999/xlink">
<g id="graph0" class="graph" transform="scale(1 1) rotate(0) translate(4 355)">
<title>snakemake_dag</title>
<polygon fill="white" stroke="transparent" points="-4,4 -4,-355 1069,-355 1069,4 -4,4"/>
<!-- 0 -->
<g id="node1" class="node">
<title>0</title>
<path fill="none" stroke="#d86656" stroke-width="2" d="M564,-36C564,-36 478,-36 478,-36 472,-36 466,-30 466,-24 466,-24 466,-12 466,-12 466,-6 472,0 478,0 478,0 564,0 564,0 570,0 576,-6 576,-12 576,-12 576,-24 576,-24 576,-30 570,-36 564,-36"/>
<text text-anchor="middle" x="521" y="-15.5" font-family="sans" font-size="10.00">build_PharmacoSet</text>
</g>
<!-- 1 -->
<g id="node2" class="node">
<title>1</title>
<path fill="none" stroke="#c6d856" stroke-width="2" d="M363,-108C363,-108 237,-108 237,-108 231,-108 225,-102 225,-96 225,-96 225,-84 225,-84 225,-78 231,-72 237,-72 237,-72 363,-72 363,-72 369,-72 375,-78 375,-84 375,-84 375,-96 375,-96 375,-102 369,-108 363,-108"/>
<text text-anchor="middle" x="300" y="-87.5" font-family="sans" font-size="10.00">make_ExpressionGenes_SE</text>
</g>
<!-- 1&#45;&gt;0 -->
<g id="edge1" class="edge">
<title>1&#45;&gt;0</title>
<path fill="none" stroke="grey" stroke-width="2" d="M353.78,-71.97C384.93,-62.1 424.32,-49.62 457.05,-39.25"/>
<polygon fill="grey" stroke="grey" stroke-width="2" points="458.5,-42.47 466.98,-36.11 456.39,-35.79 458.5,-42.47"/>
</g>
<!-- 2 -->
<g id="node3" class="node">
<title>2</title>
<path fill="none" stroke="#567bd8" stroke-width="2" d="M336,-180C336,-180 206,-180 206,-180 200,-180 194,-174 194,-168 194,-168 194,-156 194,-156 194,-150 200,-144 206,-144 206,-144 336,-144 336,-144 342,-144 348,-150 348,-156 348,-156 348,-168 348,-168 348,-174 342,-180 336,-180"/>
<text text-anchor="middle" x="271" y="-159.5" font-family="sans" font-size="10.00">preprocessExpressionGenes</text>
</g>
<!-- 2&#45;&gt;1 -->
<g id="edge8" class="edge">
<title>2&#45;&gt;1</title>
<path fill="none" stroke="grey" stroke-width="2" d="M278.17,-143.7C281.43,-135.81 285.37,-126.3 289,-117.55"/>
<polygon fill="grey" stroke="grey" stroke-width="2" points="292.32,-118.68 292.91,-108.1 285.85,-116 292.32,-118.68"/>
</g>
<!-- 3 -->
<g id="node4" class="node">
<title>3</title>
<path fill="none" stroke="#b6d856" stroke-width="2" d="M298.5,-265.5C298.5,-265.5 205.5,-265.5 205.5,-265.5 199.5,-265.5 193.5,-259.5 193.5,-253.5 193.5,-253.5 193.5,-241.5 193.5,-241.5 193.5,-235.5 199.5,-229.5 205.5,-229.5 205.5,-229.5 298.5,-229.5 298.5,-229.5 304.5,-229.5 310.5,-235.5 310.5,-241.5 310.5,-241.5 310.5,-253.5 310.5,-253.5 310.5,-259.5 304.5,-265.5 298.5,-265.5"/>
<text text-anchor="middle" x="252" y="-245" font-family="sans" font-size="10.00">downloadExpression</text>
</g>
<!-- 3&#45;&gt;2 -->
<g id="edge9" class="edge">
<title>3&#45;&gt;2</title>
<path fill="none" stroke="grey" stroke-width="2" d="M255.94,-229.2C258.48,-218 261.86,-203.19 264.76,-190.41"/>
<polygon fill="grey" stroke="grey" stroke-width="2" points="268.26,-190.81 267.07,-180.28 261.44,-189.25 268.26,-190.81"/>
</g>
<!-- 6 -->
<g id="node7" class="node">
<title>6</title>
<path fill="none" stroke="#56d8d8" stroke-width="2" d="M164,-180C164,-180 12,-180 12,-180 6,-180 0,-174 0,-168 0,-168 0,-156 0,-156 0,-150 6,-144 12,-144 12,-144 164,-144 164,-144 170,-144 176,-150 176,-156 176,-156 176,-168 176,-168 176,-174 170,-180 164,-180"/>
<text text-anchor="middle" x="88" y="-159.5" font-family="sans" font-size="10.00">preprocessExpressionTranscripts</text>
</g>
<!-- 3&#45;&gt;6 -->
<g id="edge12" class="edge">
<title>3&#45;&gt;6</title>
<path fill="none" stroke="grey" stroke-width="2" d="M218.42,-229.4C192.99,-216.46 157.89,-198.58 130.5,-184.64"/>
<polygon fill="grey" stroke="grey" stroke-width="2" points="132.04,-181.49 121.54,-180.08 128.86,-187.73 132.04,-181.49"/>
</g>
<!-- 4 -->
<g id="node5" class="node">
<title>4</title>
<path fill="none" stroke="#56a2d8" stroke-width="2" d="M153,-279C153,-279 43,-279 43,-279 37,-279 31,-273 31,-267 31,-267 31,-228 31,-228 31,-222 37,-216 43,-216 43,-216 153,-216 153,-216 159,-216 165,-222 165,-228 165,-228 165,-267 165,-267 165,-273 159,-279 153,-279"/>
<text text-anchor="middle" x="98" y="-267" font-family="sans" font-size="10.00">getGENCODEannotation</text>
<text text-anchor="middle" x="98" y="-256" font-family="sans" font-size="10.00">gencode_release: 19</text>
<text text-anchor="middle" x="98" y="-245" font-family="sans" font-size="10.00">refDir: metadata</text>
<text text-anchor="middle" x="98" y="-234" font-family="sans" font-size="10.00">ref_build: GRCh37</text>
<text text-anchor="middle" x="98" y="-223" font-family="sans" font-size="10.00">species: human</text>
</g>
<!-- 4&#45;&gt;2 -->
<g id="edge10" class="edge">
<title>4&#45;&gt;2</title>
<path fill="none" stroke="grey" stroke-width="2" d="M161.44,-215.88C183.08,-205.43 206.8,-193.98 226.62,-184.42"/>
<polygon fill="grey" stroke="grey" stroke-width="2" points="228.24,-187.53 235.72,-180.03 225.2,-181.22 228.24,-187.53"/>
</g>
<!-- 4&#45;&gt;6 -->
<g id="edge13" class="edge">
<title>4&#45;&gt;6</title>
<path fill="none" stroke="grey" stroke-width="2" d="M94.33,-215.88C93.33,-207.47 92.24,-198.4 91.26,-190.19"/>
<polygon fill="grey" stroke="grey" stroke-width="2" points="94.7,-189.54 90.04,-180.03 87.75,-190.37 94.7,-189.54"/>
</g>
<!-- 5 -->
<g id="node6" class="node">
<title>5</title>
<path fill="none" stroke="#68d856" stroke-width="2" d="M193,-108C193,-108 45,-108 45,-108 39,-108 33,-102 33,-96 33,-96 33,-84 33,-84 33,-78 39,-72 45,-72 45,-72 193,-72 193,-72 199,-72 205,-78 205,-84 205,-84 205,-96 205,-96 205,-102 199,-108 193,-108"/>
<text text-anchor="middle" x="119" y="-87.5" font-family="sans" font-size="10.00">make_ExpressionTranscripts_SE</text>
</g>
<!-- 5&#45;&gt;0 -->
<g id="edge2" class="edge">
<title>5&#45;&gt;0</title>
<path fill="none" stroke="grey" stroke-width="2" d="M205.21,-73.88C208.85,-73.25 212.46,-72.62 216,-72 298.75,-57.56 394.15,-41 455.9,-30.28"/>
<polygon fill="grey" stroke="grey" stroke-width="2" points="456.64,-33.71 465.9,-28.55 455.45,-26.81 456.64,-33.71"/>
</g>
<!-- 6&#45;&gt;5 -->
<g id="edge11" class="edge">
<title>6&#45;&gt;5</title>
<path fill="none" stroke="grey" stroke-width="2" d="M95.66,-143.7C99.19,-135.73 103.46,-126.1 107.37,-117.26"/>
<polygon fill="grey" stroke="grey" stroke-width="2" points="110.58,-118.67 111.43,-108.1 104.18,-115.83 110.58,-118.67"/>
</g>
<!-- 7 -->
<g id="node8" class="node">
<title>7</title>
<path fill="none" stroke="#9fd856" stroke-width="2" d="M569,-108C569,-108 473,-108 473,-108 467,-108 461,-102 461,-96 461,-96 461,-84 461,-84 461,-78 467,-72 473,-72 473,-72 569,-72 569,-72 575,-72 581,-78 581,-84 581,-84 581,-96 581,-96 581,-102 575,-108 569,-108"/>
<text text-anchor="middle" x="521" y="-87.5" font-family="sans" font-size="10.00">annotateSampleData</text>
</g>
<!-- 7&#45;&gt;0 -->
<g id="edge3" class="edge">
<title>7&#45;&gt;0</title>
<path fill="none" stroke="grey" stroke-width="2" d="M521,-71.7C521,-63.98 521,-54.71 521,-46.11"/>
<polygon fill="grey" stroke="grey" stroke-width="2" points="524.5,-46.1 521,-36.1 517.5,-46.1 524.5,-46.1"/>
</g>
<!-- 8 -->
<g id="node9" class="node">
<title>8</title>
<path fill="none" stroke="#56c9d8" stroke-width="2" d="M742,-180C742,-180 530,-180 530,-180 524,-180 518,-174 518,-168 518,-168 518,-156 518,-156 518,-150 524,-144 530,-144 530,-144 742,-144 742,-144 748,-144 754,-150 754,-156 754,-156 754,-168 754,-168 754,-174 748,-180 742,-180"/>
<text text-anchor="middle" x="636" y="-159.5" font-family="sans" font-size="10.00">mapSampleNamesToCellosaurusAccessionID</text>
</g>
<!-- 8&#45;&gt;7 -->
<g id="edge14" class="edge">
<title>8&#45;&gt;7</title>
<path fill="none" stroke="grey" stroke-width="2" d="M607.87,-143.88C592.83,-134.72 574.13,-123.34 557.94,-113.48"/>
<polygon fill="grey" stroke="grey" stroke-width="2" points="559.6,-110.4 549.24,-108.19 555.96,-116.38 559.6,-110.4"/>
</g>
<!-- 9 -->
<g id="node10" class="node">
<title>9</title>
<path fill="none" stroke="#56d88a" stroke-width="2" d="M580,-265.5C580,-265.5 488,-265.5 488,-265.5 482,-265.5 476,-259.5 476,-253.5 476,-253.5 476,-241.5 476,-241.5 476,-235.5 482,-229.5 488,-229.5 488,-229.5 580,-229.5 580,-229.5 586,-229.5 592,-235.5 592,-241.5 592,-241.5 592,-253.5 592,-253.5 592,-259.5 586,-265.5 580,-265.5"/>
<text text-anchor="middle" x="534" y="-245" font-family="sans" font-size="10.00">preprocessMetadata</text>
</g>
<!-- 9&#45;&gt;8 -->
<g id="edge15" class="edge">
<title>9&#45;&gt;8</title>
<path fill="none" stroke="grey" stroke-width="2" d="M555.13,-229.2C570.18,-216.88 590.58,-200.19 607.12,-186.64"/>
<polygon fill="grey" stroke="grey" stroke-width="2" points="609.37,-189.32 614.89,-180.28 604.94,-183.91 609.37,-189.32"/>
</g>
<!-- 12 -->
<g id="node13" class="node">
<title>12</title>
<path fill="none" stroke="#d6d856" stroke-width="2" d="M487.5,-180C487.5,-180 378.5,-180 378.5,-180 372.5,-180 366.5,-174 366.5,-168 366.5,-168 366.5,-156 366.5,-156 366.5,-150 372.5,-144 378.5,-144 378.5,-144 487.5,-144 487.5,-144 493.5,-144 499.5,-150 499.5,-156 499.5,-156 499.5,-168 499.5,-168 499.5,-174 493.5,-180 487.5,-180"/>
<text text-anchor="middle" x="433" y="-159.5" font-family="sans" font-size="10.00">annotateTreatmentData</text>
</g>
<!-- 9&#45;&gt;12 -->
<g id="edge18" class="edge">
<title>9&#45;&gt;12</title>
<path fill="none" stroke="grey" stroke-width="2" d="M513.07,-229.2C498.31,-217 478.35,-200.49 462.04,-187.01"/>
<polygon fill="grey" stroke="grey" stroke-width="2" points="463.84,-183.95 453.9,-180.28 459.38,-189.35 463.84,-183.95"/>
</g>
<!-- 10 -->
<g id="node11" class="node">
<title>10</title>
<path fill="none" stroke="#d8a456" stroke-width="2" d="M510,-351C510,-351 380,-351 380,-351 374,-351 368,-345 368,-339 368,-339 368,-327 368,-327 368,-321 374,-315 380,-315 380,-315 510,-315 510,-315 516,-315 522,-321 522,-327 522,-327 522,-339 522,-339 522,-345 516,-351 510,-351"/>
<text text-anchor="middle" x="445" y="-330.5" font-family="sans" font-size="10.00">downloadSampleAnnotation</text>
</g>
<!-- 10&#45;&gt;9 -->
<g id="edge16" class="edge">
<title>10&#45;&gt;9</title>
<path fill="none" stroke="grey" stroke-width="2" d="M463.44,-314.7C476.33,-302.61 493.72,-286.29 508.01,-272.88"/>
<polygon fill="grey" stroke="grey" stroke-width="2" points="510.68,-275.17 515.58,-265.78 505.9,-270.07 510.68,-275.17"/>
</g>
<!-- 11 -->
<g id="node12" class="node">
<title>11</title>
<path fill="none" stroke="#568ad8" stroke-width="2" d="M695.5,-351C695.5,-351 552.5,-351 552.5,-351 546.5,-351 540.5,-345 540.5,-339 540.5,-339 540.5,-327 540.5,-327 540.5,-321 546.5,-315 552.5,-315 552.5,-315 695.5,-315 695.5,-315 701.5,-315 707.5,-321 707.5,-327 707.5,-327 707.5,-339 707.5,-339 707.5,-345 701.5,-351 695.5,-351"/>
<text text-anchor="middle" x="624" y="-330.5" font-family="sans" font-size="10.00">downloadTreatmentAnnotation</text>
</g>
<!-- 11&#45;&gt;9 -->
<g id="edge17" class="edge">
<title>11&#45;&gt;9</title>
<path fill="none" stroke="grey" stroke-width="2" d="M605.35,-314.7C592.32,-302.61 574.73,-286.29 560.28,-272.88"/>
<polygon fill="grey" stroke="grey" stroke-width="2" points="562.34,-270.01 552.62,-265.78 557.57,-275.15 562.34,-270.01"/>
</g>
<!-- 12&#45;&gt;0 -->
<g id="edge4" class="edge">
<title>12&#45;&gt;0</title>
<path fill="none" stroke="grey" stroke-width="2" d="M433.2,-143.96C434.17,-125.02 438,-94.18 452,-72 459.39,-60.29 470.33,-50.18 481.33,-42.01"/>
<polygon fill="grey" stroke="grey" stroke-width="2" points="483.52,-44.76 489.7,-36.15 479.5,-39.02 483.52,-44.76"/>
</g>
<!-- 13 -->
<g id="node14" class="node">
<title>13</title>
<path fill="none" stroke="#d88d56" stroke-width="2" d="M787,-108C787,-108 611,-108 611,-108 605,-108 599,-102 599,-96 599,-96 599,-84 599,-84 599,-78 605,-72 611,-72 611,-72 787,-72 787,-72 793,-72 799,-78 799,-84 799,-84 799,-96 799,-96 799,-102 793,-108 787,-108"/>
<text text-anchor="middle" x="699" y="-87.5" font-family="sans" font-size="10.00">createTreatmentResponseExperiment</text>
</g>
<!-- 13&#45;&gt;0 -->
<g id="edge5" class="edge">
<title>13&#45;&gt;0</title>
<path fill="none" stroke="grey" stroke-width="2" d="M655.46,-71.88C630.8,-62.18 599.78,-49.98 573.75,-39.74"/>
<polygon fill="grey" stroke="grey" stroke-width="2" points="574.99,-36.47 564.4,-36.07 572.43,-42.99 574.99,-36.47"/>
</g>
<!-- 14 -->
<g id="node15" class="node">
<title>14</title>
<path fill="none" stroke="#d87d56" stroke-width="2" d="M944,-180C944,-180 784,-180 784,-180 778,-180 772,-174 772,-168 772,-168 772,-156 772,-156 772,-150 778,-144 784,-144 784,-144 944,-144 944,-144 950,-144 956,-150 956,-156 956,-156 956,-168 956,-168 956,-174 950,-180 944,-180"/>
<text text-anchor="middle" x="864" y="-159.5" font-family="sans" font-size="10.00">downloadTreatmentResponseData</text>
</g>
<!-- 14&#45;&gt;13 -->
<g id="edge19" class="edge">
<title>14&#45;&gt;13</title>
<path fill="none" stroke="grey" stroke-width="2" d="M823.64,-143.88C800.98,-134.26 772.53,-122.19 748.53,-112.01"/>
<polygon fill="grey" stroke="grey" stroke-width="2" points="749.81,-108.75 739.23,-108.07 747.07,-115.2 749.81,-108.75"/>
</g>
<!-- 15 -->
<g id="node16" class="node">
<title>15</title>
<path fill="none" stroke="#566bd8" stroke-width="2" d="M912.5,-108C912.5,-108 829.5,-108 829.5,-108 823.5,-108 817.5,-102 817.5,-96 817.5,-96 817.5,-84 817.5,-84 817.5,-78 823.5,-72 829.5,-72 829.5,-72 912.5,-72 912.5,-72 918.5,-72 924.5,-78 924.5,-84 924.5,-84 924.5,-96 924.5,-96 924.5,-102 918.5,-108 912.5,-108"/>
<text text-anchor="middle" x="871" y="-87.5" font-family="sans" font-size="10.00">downloadMutation</text>
</g>
<!-- 15&#45;&gt;0 -->
<g id="edge6" class="edge">
<title>15&#45;&gt;0</title>
<path fill="none" stroke="grey" stroke-width="2" d="M817.46,-74.24C814.26,-73.45 811.09,-72.7 808,-72 732.37,-54.84 644.58,-39.26 586.21,-29.49"/>
<polygon fill="grey" stroke="grey" stroke-width="2" points="586.46,-25.99 576.02,-27.8 585.31,-32.89 586.46,-25.99"/>
</g>
<!-- 16 -->
<g id="node17" class="node">
<title>16</title>
<path fill="none" stroke="#56d8b1" stroke-width="2" d="M1053,-108C1053,-108 955,-108 955,-108 949,-108 943,-102 943,-96 943,-96 943,-84 943,-84 943,-78 949,-72 955,-72 955,-72 1053,-72 1053,-72 1059,-72 1065,-78 1065,-84 1065,-84 1065,-96 1065,-96 1065,-102 1059,-108 1053,-108"/>
<text text-anchor="middle" x="1004" y="-87.5" font-family="sans" font-size="10.00">downloadMethylation</text>
</g>
<!-- 16&#45;&gt;0 -->
<g id="edge7" class="edge">
<title>16&#45;&gt;0</title>
<path fill="none" stroke="grey" stroke-width="2" d="M942.9,-73.93C939.56,-73.24 936.24,-72.59 933,-72 811.41,-49.69 667.92,-33.49 586.39,-25.23"/>
<polygon fill="grey" stroke="grey" stroke-width="2" points="586.57,-21.73 576.27,-24.21 585.87,-28.69 586.57,-21.73"/>
</g>
</g>
</svg>
