<?xml version="1.0" encoding="UTF-8" standalone="no"?>
<!DOCTYPE svg PUBLIC "-//W3C//DTD SVG 1.1//EN"
 "http://www.w3.org/Graphics/SVG/1.1/DTD/svg11.dtd">
<!-- Generated by graphviz version 2.43.0 (0)
 -->
<!-- Title: snakemake_dag Pages: 1 -->
<svg width="1181pt" height="359pt"
 viewBox="0.00 0.00 1181.00 359.00" xmlns="http://www.w3.org/2000/svg" xmlns:xlink="http://www.w3.org/1999/xlink">
<g id="graph0" class="graph" transform="scale(1 1) rotate(0) translate(4 355)">
<title>snakemake_dag</title>
<polygon fill="white" stroke="transparent" points="-4,4 -4,-355 1177,-355 1177,4 -4,4"/>
<!-- 0 -->
<g id="node1" class="node">
<title>0</title>
<path fill="none" stroke="#d8ac56" stroke-width="2" d="M689,-36C689,-36 603,-36 603,-36 597,-36 591,-30 591,-24 591,-24 591,-12 591,-12 591,-6 597,0 603,0 603,0 689,0 689,0 695,0 701,-6 701,-12 701,-12 701,-24 701,-24 701,-30 695,-36 689,-36"/>
<text text-anchor="middle" x="646" y="-15.5" font-family="sans" font-size="10.00">build_PharmacoSet</text>
</g>
<!-- 1 -->
<g id="node2" class="node">
<title>1</title>
<path fill="none" stroke="#61d856" stroke-width="2" d="M317,-108C317,-108 221,-108 221,-108 215,-108 209,-102 209,-96 209,-96 209,-84 209,-84 209,-78 215,-72 221,-72 221,-72 317,-72 317,-72 323,-72 329,-78 329,-84 329,-84 329,-96 329,-96 329,-102 323,-108 317,-108"/>
<text text-anchor="middle" x="269" y="-87.5" font-family="sans" font-size="10.00">annotateSampleData</text>
</g>
<!-- 1&#45;&gt;0 -->
<g id="edge1" class="edge">
<title>1&#45;&gt;0</title>
<path fill="none" stroke="grey" stroke-width="2" d="M329.15,-77.83C397.91,-65.06 510.05,-44.24 580.83,-31.1"/>
<polygon fill="grey" stroke="grey" stroke-width="2" points="581.77,-34.49 590.97,-29.22 580.49,-27.6 581.77,-34.49"/>
</g>
<!-- 2 -->
<g id="node3" class="node">
<title>2</title>
<path fill="none" stroke="#56d8d0" stroke-width="2" d="M345,-180C345,-180 133,-180 133,-180 127,-180 121,-174 121,-168 121,-168 121,-156 121,-156 121,-150 127,-144 133,-144 133,-144 345,-144 345,-144 351,-144 357,-150 357,-156 357,-156 357,-168 357,-168 357,-174 351,-180 345,-180"/>
<text text-anchor="middle" x="239" y="-159.5" font-family="sans" font-size="10.00">mapSampleNamesToCellosaurusAccessionID</text>
</g>
<!-- 2&#45;&gt;1 -->
<g id="edge8" class="edge">
<title>2&#45;&gt;1</title>
<path fill="none" stroke="grey" stroke-width="2" d="M246.42,-143.7C249.79,-135.81 253.87,-126.3 257.62,-117.55"/>
<polygon fill="grey" stroke="grey" stroke-width="2" points="260.95,-118.67 261.67,-108.1 254.51,-115.92 260.95,-118.67"/>
</g>
<!-- 3 -->
<g id="node4" class="node">
<title>3</title>
<path fill="none" stroke="#c6d856" stroke-width="2" d="M212,-265.5C212,-265.5 120,-265.5 120,-265.5 114,-265.5 108,-259.5 108,-253.5 108,-253.5 108,-241.5 108,-241.5 108,-235.5 114,-229.5 120,-229.5 120,-229.5 212,-229.5 212,-229.5 218,-229.5 224,-235.5 224,-241.5 224,-241.5 224,-253.5 224,-253.5 224,-259.5 218,-265.5 212,-265.5"/>
<text text-anchor="middle" x="166" y="-245" font-family="sans" font-size="10.00">preprocessMetadata</text>
</g>
<!-- 3&#45;&gt;2 -->
<g id="edge9" class="edge">
<title>3&#45;&gt;2</title>
<path fill="none" stroke="grey" stroke-width="2" d="M181.13,-229.2C191.5,-217.33 205.43,-201.39 217.03,-188.13"/>
<polygon fill="grey" stroke="grey" stroke-width="2" points="219.95,-190.11 223.89,-180.28 214.68,-185.5 219.95,-190.11"/>
</g>
<!-- 6 -->
<g id="node7" class="node">
<title>6</title>
<path fill="none" stroke="#56d882" stroke-width="2" d="M178.5,-108C178.5,-108 69.5,-108 69.5,-108 63.5,-108 57.5,-102 57.5,-96 57.5,-96 57.5,-84 57.5,-84 57.5,-78 63.5,-72 69.5,-72 69.5,-72 178.5,-72 178.5,-72 184.5,-72 190.5,-78 190.5,-84 190.5,-84 190.5,-96 190.5,-96 190.5,-102 184.5,-108 178.5,-108"/>
<text text-anchor="middle" x="124" y="-87.5" font-family="sans" font-size="10.00">annotateTreatmentData</text>
</g>
<!-- 3&#45;&gt;6 -->
<g id="edge12" class="edge">
<title>3&#45;&gt;6</title>
<path fill="none" stroke="grey" stroke-width="2" d="M146.53,-229.47C134.02,-217.15 118.86,-199.34 112,-180 104.86,-159.89 108.79,-135.83 113.99,-117.81"/>
<polygon fill="grey" stroke="grey" stroke-width="2" points="117.34,-118.81 117.03,-108.22 110.67,-116.69 117.34,-118.81"/>
</g>
<!-- 4 -->
<g id="node5" class="node">
<title>4</title>
<path fill="none" stroke="#d86656" stroke-width="2" d="M142,-351C142,-351 12,-351 12,-351 6,-351 0,-345 0,-339 0,-339 0,-327 0,-327 0,-321 6,-315 12,-315 12,-315 142,-315 142,-315 148,-315 154,-321 154,-327 154,-327 154,-339 154,-339 154,-345 148,-351 142,-351"/>
<text text-anchor="middle" x="77" y="-330.5" font-family="sans" font-size="10.00">downloadSampleAnnotation</text>
</g>
<!-- 4&#45;&gt;3 -->
<g id="edge10" class="edge">
<title>4&#45;&gt;3</title>
<path fill="none" stroke="grey" stroke-width="2" d="M95.44,-314.7C108.33,-302.61 125.72,-286.29 140.01,-272.88"/>
<polygon fill="grey" stroke="grey" stroke-width="2" points="142.68,-275.17 147.58,-265.78 137.9,-270.07 142.68,-275.17"/>
</g>
<!-- 5 -->
<g id="node6" class="node">
<title>5</title>
<path fill="none" stroke="#569ad8" stroke-width="2" d="M327.5,-351C327.5,-351 184.5,-351 184.5,-351 178.5,-351 172.5,-345 172.5,-339 172.5,-339 172.5,-327 172.5,-327 172.5,-321 178.5,-315 184.5,-315 184.5,-315 327.5,-315 327.5,-315 333.5,-315 339.5,-321 339.5,-327 339.5,-327 339.5,-339 339.5,-339 339.5,-345 333.5,-351 327.5,-351"/>
<text text-anchor="middle" x="256" y="-330.5" font-family="sans" font-size="10.00">downloadTreatmentAnnotation</text>
</g>
<!-- 5&#45;&gt;3 -->
<g id="edge11" class="edge">
<title>5&#45;&gt;3</title>
<path fill="none" stroke="grey" stroke-width="2" d="M237.35,-314.7C224.32,-302.61 206.73,-286.29 192.28,-272.88"/>
<polygon fill="grey" stroke="grey" stroke-width="2" points="194.34,-270.01 184.62,-265.78 189.57,-275.15 194.34,-270.01"/>
</g>
<!-- 6&#45;&gt;0 -->
<g id="edge2" class="edge">
<title>6&#45;&gt;0</title>
<path fill="none" stroke="grey" stroke-width="2" d="M190.65,-73.69C193.81,-73.09 196.93,-72.52 200,-72 334.56,-49.02 493.66,-32.68 580.8,-24.65"/>
<polygon fill="grey" stroke="grey" stroke-width="2" points="581.17,-28.13 590.81,-23.74 580.53,-21.16 581.17,-28.13"/>
</g>
<!-- 7 -->
<g id="node8" class="node">
<title>7</title>
<path fill="none" stroke="#80d856" stroke-width="2" d="M709,-108C709,-108 583,-108 583,-108 577,-108 571,-102 571,-96 571,-96 571,-84 571,-84 571,-78 577,-72 583,-72 583,-72 709,-72 709,-72 715,-72 721,-78 721,-84 721,-84 721,-96 721,-96 721,-102 715,-108 709,-108"/>
<text text-anchor="middle" x="646" y="-87.5" font-family="sans" font-size="10.00">make_ExpressionGenes_SE</text>
</g>
<!-- 7&#45;&gt;0 -->
<g id="edge3" class="edge">
<title>7&#45;&gt;0</title>
<path fill="none" stroke="grey" stroke-width="2" d="M646,-71.7C646,-63.98 646,-54.71 646,-46.11"/>
<polygon fill="grey" stroke="grey" stroke-width="2" points="649.5,-46.1 646,-36.1 642.5,-46.1 649.5,-46.1"/>
</g>
<!-- 8 -->
<g id="node9" class="node">
<title>8</title>
<path fill="none" stroke="#56d873" stroke-width="2" d="M711,-180C711,-180 581,-180 581,-180 575,-180 569,-174 569,-168 569,-168 569,-156 569,-156 569,-150 575,-144 581,-144 581,-144 711,-144 711,-144 717,-144 723,-150 723,-156 723,-156 723,-168 723,-168 723,-174 717,-180 711,-180"/>
<text text-anchor="middle" x="646" y="-159.5" font-family="sans" font-size="10.00">preprocessExpressionGenes</text>
</g>
<!-- 8&#45;&gt;7 -->
<g id="edge13" class="edge">
<title>8&#45;&gt;7</title>
<path fill="none" stroke="grey" stroke-width="2" d="M646,-143.7C646,-135.98 646,-126.71 646,-118.11"/>
<polygon fill="grey" stroke="grey" stroke-width="2" points="649.5,-118.1 646,-108.1 642.5,-118.1 649.5,-118.1"/>
</g>
<!-- 9 -->
<g id="node10" class="node">
<title>9</title>
<path fill="none" stroke="#d8bc56" stroke-width="2" d="M528.5,-265.5C528.5,-265.5 435.5,-265.5 435.5,-265.5 429.5,-265.5 423.5,-259.5 423.5,-253.5 423.5,-253.5 423.5,-241.5 423.5,-241.5 423.5,-235.5 429.5,-229.5 435.5,-229.5 435.5,-229.5 528.5,-229.5 528.5,-229.5 534.5,-229.5 540.5,-235.5 540.5,-241.5 540.5,-241.5 540.5,-253.5 540.5,-253.5 540.5,-259.5 534.5,-265.5 528.5,-265.5"/>
<text text-anchor="middle" x="482" y="-245" font-family="sans" font-size="10.00">downloadExpression</text>
</g>
<!-- 9&#45;&gt;8 -->
<g id="edge14" class="edge">
<title>9&#45;&gt;8</title>
<path fill="none" stroke="grey" stroke-width="2" d="M515.58,-229.4C541.01,-216.46 576.11,-198.58 603.5,-184.64"/>
<polygon fill="grey" stroke="grey" stroke-width="2" points="605.14,-187.73 612.46,-180.08 601.96,-181.49 605.14,-187.73"/>
</g>
<!-- 12 -->
<g id="node13" class="node">
<title>12</title>
<path fill="none" stroke="#d89c56" stroke-width="2" d="M539,-180C539,-180 387,-180 387,-180 381,-180 375,-174 375,-168 375,-168 375,-156 375,-156 375,-150 381,-144 387,-144 387,-144 539,-144 539,-144 545,-144 551,-150 551,-156 551,-156 551,-168 551,-168 551,-174 545,-180 539,-180"/>
<text text-anchor="middle" x="463" y="-159.5" font-family="sans" font-size="10.00">preprocessExpressionTranscripts</text>
</g>
<!-- 9&#45;&gt;12 -->
<g id="edge17" class="edge">
<title>9&#45;&gt;12</title>
<path fill="none" stroke="grey" stroke-width="2" d="M478.06,-229.2C475.52,-218 472.14,-203.19 469.24,-190.41"/>
<polygon fill="grey" stroke="grey" stroke-width="2" points="472.56,-189.25 466.93,-180.28 465.74,-190.81 472.56,-189.25"/>
</g>
<!-- 10 -->
<g id="node11" class="node">
<title>10</title>
<path fill="none" stroke="#d6d856" stroke-width="2" d="M701,-279C701,-279 591,-279 591,-279 585,-279 579,-273 579,-267 579,-267 579,-228 579,-228 579,-222 585,-216 591,-216 591,-216 701,-216 701,-216 707,-216 713,-222 713,-228 713,-228 713,-267 713,-267 713,-273 707,-279 701,-279"/>
<text text-anchor="middle" x="646" y="-267" font-family="sans" font-size="10.00">getGENCODEannotation</text>
<text text-anchor="middle" x="646" y="-256" font-family="sans" font-size="10.00">gencode_release: 19</text>
<text text-anchor="middle" x="646" y="-245" font-family="sans" font-size="10.00">refDir: metadata</text>
<text text-anchor="middle" x="646" y="-234" font-family="sans" font-size="10.00">ref_build: GRCh37</text>
<text text-anchor="middle" x="646" y="-223" font-family="sans" font-size="10.00">species: human</text>
</g>
<!-- 10&#45;&gt;8 -->
<g id="edge15" class="edge">
<title>10&#45;&gt;8</title>
<path fill="none" stroke="grey" stroke-width="2" d="M646,-215.88C646,-207.47 646,-198.4 646,-190.19"/>
<polygon fill="grey" stroke="grey" stroke-width="2" points="649.5,-190.03 646,-180.03 642.5,-190.03 649.5,-190.03"/>
</g>
<!-- 10&#45;&gt;12 -->
<g id="edge18" class="edge">
<title>10&#45;&gt;12</title>
<path fill="none" stroke="grey" stroke-width="2" d="M578.9,-215.88C555.9,-205.39 530.68,-193.88 509.66,-184.29"/>
<polygon fill="grey" stroke="grey" stroke-width="2" points="510.87,-180.99 500.32,-180.03 507.96,-187.36 510.87,-180.99"/>
</g>
<!-- 14 -->
<g id="node15" class="node">
<title>14</title>
<path fill="none" stroke="#8fd856" stroke-width="2" d="M820.5,-180C820.5,-180 753.5,-180 753.5,-180 747.5,-180 741.5,-174 741.5,-168 741.5,-168 741.5,-156 741.5,-156 741.5,-150 747.5,-144 753.5,-144 753.5,-144 820.5,-144 820.5,-144 826.5,-144 832.5,-150 832.5,-156 832.5,-156 832.5,-168 832.5,-168 832.5,-174 826.5,-180 820.5,-180"/>
<text text-anchor="middle" x="787" y="-159.5" font-family="sans" font-size="10.00">preprocessCNV</text>
</g>
<!-- 10&#45;&gt;14 -->
<g id="edge21" class="edge">
<title>10&#45;&gt;14</title>
<path fill="none" stroke="grey" stroke-width="2" d="M697.7,-215.88C714.78,-205.77 733.46,-194.71 749.29,-185.33"/>
<polygon fill="grey" stroke="grey" stroke-width="2" points="751.43,-188.13 758.25,-180.03 747.86,-182.11 751.43,-188.13"/>
</g>
<!-- 11 -->
<g id="node12" class="node">
<title>11</title>
<path fill="none" stroke="#56d8b1" stroke-width="2" d="M539,-108C539,-108 391,-108 391,-108 385,-108 379,-102 379,-96 379,-96 379,-84 379,-84 379,-78 385,-72 391,-72 391,-72 539,-72 539,-72 545,-72 551,-78 551,-84 551,-84 551,-96 551,-96 551,-102 545,-108 539,-108"/>
<text text-anchor="middle" x="465" y="-87.5" font-family="sans" font-size="10.00">make_ExpressionTranscripts_SE</text>
</g>
<!-- 11&#45;&gt;0 -->
<g id="edge4" class="edge">
<title>11&#45;&gt;0</title>
<path fill="none" stroke="grey" stroke-width="2" d="M509.28,-71.88C534.35,-62.18 565.9,-49.98 592.37,-39.74"/>
<polygon fill="grey" stroke="grey" stroke-width="2" points="593.8,-42.94 601.87,-36.07 591.28,-36.41 593.8,-42.94"/>
</g>
<!-- 12&#45;&gt;11 -->
<g id="edge16" class="edge">
<title>12&#45;&gt;11</title>
<path fill="none" stroke="grey" stroke-width="2" d="M463.49,-143.7C463.71,-135.98 463.98,-126.71 464.23,-118.11"/>
<polygon fill="grey" stroke="grey" stroke-width="2" points="467.72,-118.2 464.51,-108.1 460.73,-118 467.72,-118.2"/>
</g>
<!-- 13 -->
<g id="node14" class="node">
<title>13</title>
<path fill="none" stroke="#5663d8" stroke-width="2" d="M814.5,-108C814.5,-108 751.5,-108 751.5,-108 745.5,-108 739.5,-102 739.5,-96 739.5,-96 739.5,-84 739.5,-84 739.5,-78 745.5,-72 751.5,-72 751.5,-72 814.5,-72 814.5,-72 820.5,-72 826.5,-78 826.5,-84 826.5,-84 826.5,-96 826.5,-96 826.5,-102 820.5,-108 814.5,-108"/>
<text text-anchor="middle" x="783" y="-87.5" font-family="sans" font-size="10.00">make_CNV_SE</text>
</g>
<!-- 13&#45;&gt;0 -->
<g id="edge5" class="edge">
<title>13&#45;&gt;0</title>
<path fill="none" stroke="grey" stroke-width="2" d="M749.49,-71.88C731.16,-62.51 708.26,-50.81 688.67,-40.8"/>
<polygon fill="grey" stroke="grey" stroke-width="2" points="690.14,-37.62 679.64,-36.19 686.96,-43.86 690.14,-37.62"/>
</g>
<!-- 14&#45;&gt;13 -->
<g id="edge19" class="edge">
<title>14&#45;&gt;13</title>
<path fill="none" stroke="grey" stroke-width="2" d="M786.01,-143.7C785.57,-135.98 785.04,-126.71 784.55,-118.11"/>
<polygon fill="grey" stroke="grey" stroke-width="2" points="788.04,-117.89 783.98,-108.1 781.05,-118.29 788.04,-117.89"/>
</g>
<!-- 15 -->
<g id="node16" class="node">
<title>15</title>
<path fill="none" stroke="#d8cb56" stroke-width="2" d="M817.5,-265.5C817.5,-265.5 756.5,-265.5 756.5,-265.5 750.5,-265.5 744.5,-259.5 744.5,-253.5 744.5,-253.5 744.5,-241.5 744.5,-241.5 744.5,-235.5 750.5,-229.5 756.5,-229.5 756.5,-229.5 817.5,-229.5 817.5,-229.5 823.5,-229.5 829.5,-235.5 829.5,-241.5 829.5,-241.5 829.5,-253.5 829.5,-253.5 829.5,-259.5 823.5,-265.5 817.5,-265.5"/>
<text text-anchor="middle" x="787" y="-245" font-family="sans" font-size="10.00">downloadCNV</text>
</g>
<!-- 15&#45;&gt;14 -->
<g id="edge20" class="edge">
<title>15&#45;&gt;14</title>
<path fill="none" stroke="grey" stroke-width="2" d="M787,-229.2C787,-218 787,-203.19 787,-190.41"/>
<polygon fill="grey" stroke="grey" stroke-width="2" points="790.5,-190.28 787,-180.28 783.5,-190.28 790.5,-190.28"/>
</g>
<!-- 16 -->
<g id="node17" class="node">
<title>16</title>
<path fill="none" stroke="#56b9d8" stroke-width="2" d="M943,-108C943,-108 857,-108 857,-108 851,-108 845,-102 845,-96 845,-96 845,-84 845,-84 845,-78 851,-72 857,-72 857,-72 943,-72 943,-72 949,-72 955,-78 955,-84 955,-84 955,-96 955,-96 955,-102 949,-108 943,-108"/>
<text text-anchor="middle" x="900" y="-87.5" font-family="sans" font-size="10.00">make_Mutation_SE</text>
</g>
<!-- 16&#45;&gt;0 -->
<g id="edge6" class="edge">
<title>16&#45;&gt;0</title>
<path fill="none" stroke="grey" stroke-width="2" d="M844.89,-73.81C805.44,-62.94 752.21,-48.27 710.74,-36.84"/>
<polygon fill="grey" stroke="grey" stroke-width="2" points="711.58,-33.44 701.01,-34.16 709.72,-40.19 711.58,-33.44"/>
</g>
<!-- 17 -->
<g id="node18" class="node">
<title>17</title>
<path fill="none" stroke="#567bd8" stroke-width="2" d="M951.5,-180C951.5,-180 862.5,-180 862.5,-180 856.5,-180 850.5,-174 850.5,-168 850.5,-168 850.5,-156 850.5,-156 850.5,-150 856.5,-144 862.5,-144 862.5,-144 951.5,-144 951.5,-144 957.5,-144 963.5,-150 963.5,-156 963.5,-156 963.5,-168 963.5,-168 963.5,-174 957.5,-180 951.5,-180"/>
<text text-anchor="middle" x="907" y="-159.5" font-family="sans" font-size="10.00">preprocessMutation</text>
</g>
<!-- 17&#45;&gt;16 -->
<g id="edge22" class="edge">
<title>17&#45;&gt;16</title>
<path fill="none" stroke="grey" stroke-width="2" d="M905.27,-143.7C904.5,-135.98 903.57,-126.71 902.71,-118.11"/>
<polygon fill="grey" stroke="grey" stroke-width="2" points="906.19,-117.71 901.71,-108.1 899.22,-118.4 906.19,-117.71"/>
</g>
<!-- 18 -->
<g id="node19" class="node">
<title>18</title>
<path fill="none" stroke="#56d8c1" stroke-width="2" d="M948.5,-265.5C948.5,-265.5 865.5,-265.5 865.5,-265.5 859.5,-265.5 853.5,-259.5 853.5,-253.5 853.5,-253.5 853.5,-241.5 853.5,-241.5 853.5,-235.5 859.5,-229.5 865.5,-229.5 865.5,-229.5 948.5,-229.5 948.5,-229.5 954.5,-229.5 960.5,-235.5 960.5,-241.5 960.5,-241.5 960.5,-253.5 960.5,-253.5 960.5,-259.5 954.5,-265.5 948.5,-265.5"/>
<text text-anchor="middle" x="907" y="-245" font-family="sans" font-size="10.00">downloadMutation</text>
</g>
<!-- 18&#45;&gt;17 -->
<g id="edge23" class="edge">
<title>18&#45;&gt;17</title>
<path fill="none" stroke="grey" stroke-width="2" d="M907,-229.2C907,-218 907,-203.19 907,-190.41"/>
<polygon fill="grey" stroke="grey" stroke-width="2" points="910.5,-190.28 907,-180.28 903.5,-190.28 910.5,-190.28"/>
</g>
<!-- 19 -->
<g id="node20" class="node">
<title>19</title>
<path fill="none" stroke="#568ad8" stroke-width="2" d="M1161,-108C1161,-108 985,-108 985,-108 979,-108 973,-102 973,-96 973,-96 973,-84 973,-84 973,-78 979,-72 985,-72 985,-72 1161,-72 1161,-72 1167,-72 1173,-78 1173,-84 1173,-84 1173,-96 1173,-96 1173,-102 1167,-108 1161,-108"/>
<text text-anchor="middle" x="1073" y="-87.5" font-family="sans" font-size="10.00">createTreatmentResponseExperiment</text>
</g>
<!-- 19&#45;&gt;0 -->
<g id="edge7" class="edge">
<title>19&#45;&gt;0</title>
<path fill="none" stroke="grey" stroke-width="2" d="M972.89,-72.59C892.07,-59.34 780.71,-41.08 711.06,-29.67"/>
<polygon fill="grey" stroke="grey" stroke-width="2" points="711.53,-26.2 701.1,-28.03 710.4,-33.1 711.53,-26.2"/>
</g>
<!-- 20 -->
<g id="node21" class="node">
<title>20</title>
<path fill="none" stroke="#afd856" stroke-width="2" d="M1154,-180C1154,-180 994,-180 994,-180 988,-180 982,-174 982,-168 982,-168 982,-156 982,-156 982,-150 988,-144 994,-144 994,-144 1154,-144 1154,-144 1160,-144 1166,-150 1166,-156 1166,-156 1166,-168 1166,-168 1166,-174 1160,-180 1154,-180"/>
<text text-anchor="middle" x="1074" y="-159.5" font-family="sans" font-size="10.00">downloadTreatmentResponseData</text>
</g>
<!-- 20&#45;&gt;19 -->
<g id="edge24" class="edge">
<title>20&#45;&gt;19</title>
<path fill="none" stroke="grey" stroke-width="2" d="M1073.75,-143.7C1073.64,-135.98 1073.51,-126.71 1073.39,-118.11"/>
<polygon fill="grey" stroke="grey" stroke-width="2" points="1076.89,-118.05 1073.24,-108.1 1069.89,-118.15 1076.89,-118.05"/>
</g>
</g>
</svg>
