<?xml version="1.0" encoding="UTF-8" standalone="no"?>
<!DOCTYPE svg PUBLIC "-//W3C//DTD SVG 1.1//EN"
 "http://www.w3.org/Graphics/SVG/1.1/DTD/svg11.dtd">
<!-- Generated by graphviz version 2.43.0 (0)
 -->
<!-- Title: snakemake_dag Pages: 1 -->
<svg width="373pt" height="332pt"
 viewBox="0.00 0.00 372.50 332.00" xmlns="http://www.w3.org/2000/svg" xmlns:xlink="http://www.w3.org/1999/xlink">
<g id="graph0" class="graph" transform="scale(1 1) rotate(0) translate(4 328)">
<title>snakemake_dag</title>
<polygon fill="white" stroke="transparent" points="-4,4 -4,-328 368.5,-328 368.5,4 -4,4"/>
<!-- 0 -->
<g id="node1" class="node">
<title>0</title>
<path fill="none" stroke="#56d0d8" stroke-width="2" d="M240,-36C240,-36 140,-36 140,-36 134,-36 128,-30 128,-24 128,-24 128,-12 128,-12 128,-6 134,0 140,0 140,0 240,0 240,0 246,0 252,-6 252,-12 252,-12 252,-24 252,-24 252,-30 246,-36 240,-36"/>
<text text-anchor="middle" x="190" y="-15.5" font-family="sans" font-size="10.00">annotateALLMetadata</text>
</g>
<!-- 1 -->
<g id="node2" class="node">
<title>1</title>
<path fill="none" stroke="#d89556" stroke-width="2" d="M166,-108C166,-108 70,-108 70,-108 64,-108 58,-102 58,-96 58,-96 58,-84 58,-84 58,-78 64,-72 70,-72 70,-72 166,-72 166,-72 172,-72 178,-78 178,-84 178,-84 178,-96 178,-96 178,-102 172,-108 166,-108"/>
<text text-anchor="middle" x="118" y="-87.5" font-family="sans" font-size="10.00">annotateSampleData</text>
</g>
<!-- 1&#45;&gt;0 -->
<g id="edge1" class="edge">
<title>1&#45;&gt;0</title>
<path fill="none" stroke="grey" stroke-width="2" d="M135.8,-71.7C144.6,-63.14 155.38,-52.66 165,-43.3"/>
<polygon fill="grey" stroke="grey" stroke-width="2" points="167.68,-45.58 172.41,-36.1 162.8,-40.57 167.68,-45.58"/>
</g>
<!-- 2 -->
<g id="node3" class="node">
<title>2</title>
<path fill="none" stroke="#56a9d8" stroke-width="2" d="M224,-180C224,-180 12,-180 12,-180 6,-180 0,-174 0,-168 0,-168 0,-156 0,-156 0,-150 6,-144 12,-144 12,-144 224,-144 224,-144 230,-144 236,-150 236,-156 236,-156 236,-168 236,-168 236,-174 230,-180 224,-180"/>
<text text-anchor="middle" x="118" y="-159.5" font-family="sans" font-size="10.00">mapSampleNamesToCellosaurusAccessionID</text>
</g>
<!-- 2&#45;&gt;1 -->
<g id="edge3" class="edge">
<title>2&#45;&gt;1</title>
<path fill="none" stroke="grey" stroke-width="2" d="M118,-143.7C118,-135.98 118,-126.71 118,-118.11"/>
<polygon fill="grey" stroke="grey" stroke-width="2" points="121.5,-118.1 118,-108.1 114.5,-118.1 121.5,-118.1"/>
</g>
<!-- 3 -->
<g id="node4" class="node">
<title>3</title>
<path fill="none" stroke="#ced856" stroke-width="2" d="M237,-252C237,-252 145,-252 145,-252 139,-252 133,-246 133,-240 133,-240 133,-228 133,-228 133,-222 139,-216 145,-216 145,-216 237,-216 237,-216 243,-216 249,-222 249,-228 249,-228 249,-240 249,-240 249,-246 243,-252 237,-252"/>
<text text-anchor="middle" x="191" y="-231.5" font-family="sans" font-size="10.00">preprocessMetadata</text>
</g>
<!-- 3&#45;&gt;2 -->
<g id="edge4" class="edge">
<title>3&#45;&gt;2</title>
<path fill="none" stroke="grey" stroke-width="2" d="M172.96,-215.7C163.94,-207.05 152.88,-196.45 143.06,-187.03"/>
<polygon fill="grey" stroke="grey" stroke-width="2" points="145.48,-184.5 135.84,-180.1 140.63,-189.55 145.48,-184.5"/>
</g>
<!-- 6 -->
<g id="node7" class="node">
<title>6</title>
<path fill="none" stroke="#567bd8" stroke-width="2" d="M317.5,-108C317.5,-108 208.5,-108 208.5,-108 202.5,-108 196.5,-102 196.5,-96 196.5,-96 196.5,-84 196.5,-84 196.5,-78 202.5,-72 208.5,-72 208.5,-72 317.5,-72 317.5,-72 323.5,-72 329.5,-78 329.5,-84 329.5,-84 329.5,-96 329.5,-96 329.5,-102 323.5,-108 317.5,-108"/>
<text text-anchor="middle" x="263" y="-87.5" font-family="sans" font-size="10.00">annotateTreatmentData</text>
</g>
<!-- 3&#45;&gt;6 -->
<g id="edge7" class="edge">
<title>3&#45;&gt;6</title>
<path fill="none" stroke="grey" stroke-width="2" d="M213.89,-215.98C224.94,-206.57 237.42,-193.97 245,-180 255.37,-160.89 259.79,-136.54 261.66,-118.14"/>
<polygon fill="grey" stroke="grey" stroke-width="2" points="265.16,-118.33 262.5,-108.08 258.18,-117.75 265.16,-118.33"/>
</g>
<!-- 4 -->
<g id="node5" class="node">
<title>4</title>
<path fill="none" stroke="#566bd8" stroke-width="2" d="M167,-324C167,-324 37,-324 37,-324 31,-324 25,-318 25,-312 25,-312 25,-300 25,-300 25,-294 31,-288 37,-288 37,-288 167,-288 167,-288 173,-288 179,-294 179,-300 179,-300 179,-312 179,-312 179,-318 173,-324 167,-324"/>
<text text-anchor="middle" x="102" y="-303.5" font-family="sans" font-size="10.00">downloadSampleAnnotation</text>
</g>
<!-- 4&#45;&gt;3 -->
<g id="edge5" class="edge">
<title>4&#45;&gt;3</title>
<path fill="none" stroke="grey" stroke-width="2" d="M124,-287.7C135.21,-278.88 149,-268.03 161.15,-258.47"/>
<polygon fill="grey" stroke="grey" stroke-width="2" points="163.56,-261.04 169.25,-252.1 159.23,-255.54 163.56,-261.04"/>
</g>
<!-- 5 -->
<g id="node6" class="node">
<title>5</title>
<path fill="none" stroke="#d8a456" stroke-width="2" d="M352.5,-324C352.5,-324 209.5,-324 209.5,-324 203.5,-324 197.5,-318 197.5,-312 197.5,-312 197.5,-300 197.5,-300 197.5,-294 203.5,-288 209.5,-288 209.5,-288 352.5,-288 352.5,-288 358.5,-288 364.5,-294 364.5,-300 364.5,-300 364.5,-312 364.5,-312 364.5,-318 358.5,-324 352.5,-324"/>
<text text-anchor="middle" x="281" y="-303.5" font-family="sans" font-size="10.00">downloadTreatmentAnnotation</text>
</g>
<!-- 5&#45;&gt;3 -->
<g id="edge6" class="edge">
<title>5&#45;&gt;3</title>
<path fill="none" stroke="grey" stroke-width="2" d="M258.75,-287.7C247.42,-278.88 233.47,-268.03 221.18,-258.47"/>
<polygon fill="grey" stroke="grey" stroke-width="2" points="223.03,-255.48 212.99,-252.1 218.74,-261.01 223.03,-255.48"/>
</g>
<!-- 6&#45;&gt;0 -->
<g id="edge2" class="edge">
<title>6&#45;&gt;0</title>
<path fill="none" stroke="grey" stroke-width="2" d="M244.96,-71.7C235.94,-63.05 224.88,-52.45 215.06,-43.03"/>
<polygon fill="grey" stroke="grey" stroke-width="2" points="217.48,-40.5 207.84,-36.1 212.63,-45.55 217.48,-40.5"/>
</g>
</g>
</svg>
